<svg width="92" height="100" viewBox="0 0 92 100" fill="none" xmlns="http://www.w3.org/2000/svg">
<mask id="mask0" mask-type="alpha" maskUnits="userSpaceOnUse" x="0" y="0" width="92" height="100">
<rect width="92" height="100" fill="#C4C4C4"/>
</mask>
<g mask="url(#mask0)">
<path d="M55.1992 98.2171C41.0165 99.4374 28.0033 96.5146 19.1404 88.4676C10.2917 80.3962 5.60222 67.2383 5.73933 52.6021C5.87643 37.966 10.8489 21.8893 22.1592 11.8809C33.4553 1.89684 51.0751 -1.99455 61.6175 4.25491C72.1829 10.5176 75.6709 26.9211 80.9181 42.2893C86.1565 57.6198 93.117 71.9262 88.9396 81.7554C84.7482 91.6091 69.3819 96.9968 55.1992 98.2171Z" fill="#50EFF5"/>
<path d="M8.97402 77.2463C6.76402 74.4663 3.38402 69.4863 1.45402 62.4363C-0.705978 54.5363 0.00402182 47.8563 0.654022 44.2463C10.694 44.0163 18.304 42.1763 23.254 40.6163C40.664 35.1363 55.084 26.7663 55.084 26.7663C57.794 25.1863 62.754 22.1963 69.404 22.1063C71.104 22.0863 77.894 21.9963 79.894 25.9063C80.374 26.8463 80.464 27.7963 80.444 28.5163C80.834 28.7663 82.614 29.9863 83.154 32.3563C83.584 34.2163 83.004 35.7263 82.774 36.2463C83.084 36.3863 84.814 37.1863 85.564 39.2163C86.324 41.2763 85.494 43.0263 85.354 43.3263C87.384 43.6663 88.954 45.1863 89.254 47.0463C89.604 49.1563 88.144 50.7163 87.974 50.8963C85.234 51.8963 82.494 52.8963 79.754 53.8963C79.154 55.1363 78.024 57.0763 76.004 58.7363C74.794 59.7263 74.14 62.4863 61.5 62.8663C59.11 62.9363 53.234 62.3763 49.074 62.1463C48.064 62.2663 46.544 62.4663 44.734 62.8663C37.874 64.3563 33.134 67.1263 31.464 68.0663C27.334 70.3763 20.564 73.5463 8.97402 77.2463Z" fill="white"/>
<path d="M0.654297 44.2463C16.1643 43.6363 27.0843 39.8263 34.3043 36.3563C34.1043 36.4563 41.5943 32.9963 56.5943 26.0863C58.4943 25.2063 69.0843 20.3263 75.2743 22.5963C76.4643 23.0363 79.3843 24.1063 80.2343 26.6663C80.4843 27.4063 80.4843 28.0763 80.4543 28.5263" stroke="#1D1D1B" stroke-width="1.5" stroke-miterlimit="10" stroke-linecap="round" stroke-linejoin="round"/>
<path d="M77.3242 28.5463C77.5942 28.4963 80.1242 28.1063 81.9442 29.8863C83.5442 31.4563 83.9142 34.0463 82.7842 36.2463" fill="white"/>
<path d="M77.3242 28.5463C77.5942 28.4963 80.1242 28.1063 81.9442 29.8863C83.5442 31.4563 83.9142 34.0463 82.7842 36.2463" stroke="#1D1D1B" stroke-width="1.5" stroke-miterlimit="10" stroke-linecap="round" stroke-linejoin="round"/>
<path d="M79.6445 35.7063C79.8745 35.6863 82.6945 35.5363 84.5145 37.8463C86.4245 40.2763 85.4245 43.1563 85.3645 43.3163" fill="white"/>
<path d="M79.6445 35.7063C79.8745 35.6863 82.6945 35.5363 84.5145 37.8463C86.4245 40.2763 85.4245 43.1563 85.3645 43.3163" stroke="#1D1D1B" stroke-width="1.5" stroke-miterlimit="10" stroke-linecap="round" stroke-linejoin="round"/>
<path d="M8.97461 77.2463C13.4546 75.6963 20.3646 73.2063 28.7346 69.7663C42.6046 64.0663 43.3546 62.7963 48.5546 62.1863C59.2146 60.9263 64.0046 65.3163 71.3946 61.8163C75.6746 59.7963 78.2746 56.3263 79.7546 53.8763" stroke="#1D1D1B" stroke-width="1.5" stroke-miterlimit="10" stroke-linecap="round" stroke-linejoin="round"/>
<path d="M81.5739 43.3463C84.2539 42.7063 86.8739 43.3663 88.2839 45.1363C88.3539 45.2263 90.0139 47.3663 89.2439 49.3363C88.8039 50.4563 87.7739 51.0763 87.0339 51.4263C82.4139 53.6463 64.4539 57.8163 63.2539 58.0863" fill="white"/>
<path d="M81.5739 43.3463C84.2539 42.7063 86.8739 43.3663 88.2839 45.1363C88.3539 45.2263 90.0139 47.3663 89.2439 49.3363C88.8039 50.4563 87.7739 51.0763 87.0339 51.4263C82.4139 53.6463 64.4539 57.8163 63.2539 58.0863" stroke="#1D1D1B" stroke-width="1.5" stroke-miterlimit="10" stroke-linecap="round" stroke-linejoin="round"/>
<path d="M39.4937 57.5563C44.5913 57.5563 48.7237 53.4239 48.7237 48.3263C48.7237 43.2287 44.5913 39.0963 39.4937 39.0963C34.3961 39.0963 30.2637 43.2287 30.2637 48.3263C30.2637 53.4239 34.3961 57.5563 39.4937 57.5563Z" fill="white" stroke="#1D1D1B" stroke-width="1.5" stroke-miterlimit="10" stroke-linecap="round" stroke-linejoin="round"/>
<path d="M37.9531 57.4363C38.7731 59.9563 39.5931 62.4663 40.4031 64.9863" stroke="#1D1D1B" stroke-width="1.5" stroke-miterlimit="10" stroke-linecap="round" stroke-linejoin="round"/>
<path d="M46.1445 54.7263L49.0745 62.1363" stroke="#1D1D1B" stroke-width="1.5" stroke-miterlimit="10" stroke-linecap="round" stroke-linejoin="round"/>
<path d="M41.034 39.2164C40.554 37.4564 40.064 35.6864 39.584 33.9164" stroke="#1D1D1B" stroke-width="1.5" stroke-miterlimit="10" stroke-linecap="round" stroke-linejoin="round"/>
<path d="M32.2648 42.5764C31.6348 41.0964 31.0148 39.6164 30.3848 38.1364" stroke="#1D1D1B" stroke-width="1.5" stroke-miterlimit="10" stroke-linecap="round" stroke-linejoin="round"/>
<path d="M32.7539 46.1163L39.1739 47.8963L39.4939 45.0663" stroke="#1D1D1B" stroke-width="1.5" stroke-miterlimit="10" stroke-linecap="round" stroke-linejoin="round"/>
</g>
</svg>
