<svg width="85" height="100" viewBox="0 0 85 100" fill="none" xmlns="http://www.w3.org/2000/svg">
<mask id="mask0" mask-type="alpha" maskUnits="userSpaceOnUse" x="0" y="0" width="85" height="100">
<rect width="85" height="100" fill="#C4C4C4"/>
</mask>
<g mask="url(#mask0)">
<path d="M14.1532 20.5118C29.8732 0.0121513 48.1219 0.570742 58.7655 6.04966C69.4017 11.5558 77.3369 23.0517 80.9926 37.2246C84.6483 51.3975 84.0062 68.2134 75.6717 80.8081C67.3445 93.3756 51.3323 101.695 39.5316 98.3868C27.7053 95.072 20.0906 80.1302 11.0447 66.6437C2.01696 53.1914 -1.56683 41.0115 14.1532 20.5118Z" fill="#50EFF5"/>
<rect x="64.1523" y="26.5118" width="20" height="4" fill="white"/>
<ellipse cx="61.1523" cy="36.5118" rx="4" ry="5" fill="white"/>
<path d="M39.7617 41.7345C41.9017 38.5745 56.7417 16.9345 63.9117 19.8945C64.5217 20.1445 65.1117 20.5945 65.6417 21.3145" fill="white"/>
<path d="M39.7617 41.7345C41.9017 38.5745 56.7417 16.9345 63.9117 19.8945C64.5217 20.1445 65.1117 20.5945 65.6417 21.3145" stroke="#1D1D1B" stroke-width="1.5" stroke-miterlimit="10" stroke-linecap="round" stroke-linejoin="round"/>
<path d="M62.1415 40.9846C61.9815 41.8546 61.6915 42.3546 61.2815 42.4946C60.3415 42.8046 58.7515 41.1646 56.5215 37.5746" fill="white"/>
<path d="M62.1415 40.9846C61.9815 41.8546 61.6915 42.3546 61.2815 42.4946C60.3415 42.8046 58.7515 41.1646 56.5215 37.5746" stroke="#1D1D1B" stroke-width="1.5" stroke-miterlimit="10" stroke-linecap="round" stroke-linejoin="round"/>
<path d="M83.7826 45.9045H62.1426V50.8245H83.7826V45.9045Z" fill="white" stroke="#1D1D1B" stroke-width="1.5" stroke-miterlimit="10" stroke-linecap="round" stroke-linejoin="round"/>
<path d="M83.7826 40.9846H62.1426V45.9046H83.7826V40.9846Z" fill="white" stroke="#1D1D1B" stroke-width="1.5" stroke-miterlimit="10" stroke-linecap="round" stroke-linejoin="round"/>
<path d="M83.7826 36.0646H62.1426V40.9846H83.7826V36.0646Z" fill="white" stroke="#1D1D1B" stroke-width="1.5" stroke-miterlimit="10" stroke-linecap="round" stroke-linejoin="round"/>
<path d="M65.9523 31.1445H83.7924V36.0645H62.1523C62.1523 34.5745 62.1523 33.0845 62.1523 31.5845" fill="white"/>
<path d="M65.9523 31.1445H83.7924V36.0645H62.1523C62.1523 34.5745 62.1523 33.0845 62.1523 31.5845" stroke="#1D1D1B" stroke-width="1.5" stroke-miterlimit="10" stroke-linecap="round" stroke-linejoin="round"/>
<path d="M75.8321 26.2246H83.7821V31.1446H65.9421C64.8521 31.1446 63.7521 31.1446 62.6621 31.1446" stroke="#1D1D1B" stroke-width="1.5" stroke-miterlimit="10" stroke-linecap="round" stroke-linejoin="round"/>
<path d="M1.15234 56.8146C15.2923 56.2246 25.6124 52.2646 29.6924 49.8246C35.5424 46.3246 39.7523 41.7346 39.7523 41.7346C45.2224 37.0146 46.5124 33.7946 52.3824 28.8646C53.4624 27.9646 54.6624 27.0746 56.2424 26.0746C66.5124 19.4946 79.2024 16.8946 80.6924 19.5246C81.3223 20.6446 79.8324 22.5946 79.2124 23.4146C75.8124 27.8646 71.1324 27.1246 65.9424 29.3446C55.1824 33.9446 51.9823 47.0846 50.6223 52.7046C49.3923 57.7646 50.4823 58.7046 50.8123 58.9246C51.6423 59.4746 52.8524 58.7746 54.8624 57.9446C59.3324 56.0946 62.4523 52.0646 67.2023 51.2746C70.4923 50.7346 74.1924 51.7846 74.5023 53.2346C74.7023 54.1946 73.3923 55.1346 68.2224 58.6846C62.6324 62.5346 59.8623 64.5046 58.9523 64.9946C52.5223 68.4746 49.4123 70.4146 47.6523 71.1946C44.9723 72.3646 43.9923 72.7846 42.9223 73.0146C38.5623 73.9746 35.0224 72.7946 33.7224 72.4746C30.1224 71.5746 24.1924 72.2546 14.0724 79.7246" fill="white"/>
<path d="M1.15234 56.8146C15.2923 56.2246 25.6124 52.2646 29.6924 49.8246C35.5424 46.3246 39.7523 41.7346 39.7523 41.7346C45.2223 37.0146 46.5124 33.7946 52.3824 28.8646C53.4624 27.9646 54.6624 27.0746 56.2424 26.0746C66.5124 19.4946 79.2024 16.8946 80.6924 19.5246C81.3224 20.6446 79.8324 22.5946 79.2124 23.4146C75.8124 27.8646 71.1324 27.1246 65.9424 29.3446C55.1824 33.9446 51.9823 47.0846 50.6223 52.7046C49.3923 57.7646 50.4823 58.7046 50.8123 58.9246C51.6423 59.4746 52.8524 58.7746 54.8624 57.9446C59.3324 56.0946 62.4523 52.0646 67.2023 51.2746C70.4923 50.7346 74.1923 51.7846 74.5023 53.2346C74.7023 54.1946 73.3924 55.1346 68.2224 58.6846C62.6324 62.5346 59.8623 64.5046 58.9523 64.9946C52.5223 68.4746 49.4123 70.4146 47.6523 71.1946C44.9723 72.3646 43.9923 72.7846 42.9223 73.0146C38.5623 73.9746 35.0224 72.7946 33.7224 72.4746C30.1224 71.5746 24.1924 72.2546 14.0724 79.7246" stroke="#1D1D1B" stroke-width="1.5" stroke-miterlimit="10" stroke-linecap="round" stroke-linejoin="round"/>
</g>
</svg>
