<svg width="91" height="100" viewBox="0 0 91 100" fill="none" xmlns="http://www.w3.org/2000/svg">
<mask id="mask0" mask-type="alpha" maskUnits="userSpaceOnUse" x="0" y="0" width="91" height="100">
<rect width="91" height="100" fill="#C4C4C4"/>
</mask>
<g mask="url(#mask0)">
<path d="M88.1863 43.3423C95.5458 68.105 84.3762 82.5469 73.6908 87.9437C62.9876 93.3186 49.0228 92.9896 35.4047 87.6247C21.7867 82.2597 8.55352 71.8641 3.25456 57.7215C-2.02664 43.6009 0.644104 25.7552 10.252 18.1469C19.8804 10.5218 36.446 13.134 52.6742 13.7331C68.8641 14.3269 80.8269 18.5795 88.1863 43.3423Z" fill="#50EFF5"/>
<path d="M35.4383 93.055C36.5283 76.945 36.6083 70.825 36.2283 69.735C36.2083 69.685 35.9283 68.895 35.5883 67.805C35.4183 67.275 35.2283 66.645 35.0283 65.915C33.4283 60.135 33.5383 57.195 31.9783 49.295C31.6483 47.635 31.5083 46.775 31.2183 45.655C27.9483 33.055 20.9683 26.025 23.5683 23.135C24.0983 22.555 25.0283 22.125 25.8383 22.265C27.4983 22.555 27.9283 24.845 29.9983 29.485C31.7083 33.325 31.6283 32.215 34.7783 38.715C35.9483 41.135 36.4682 42.335 36.7682 42.255C37.3482 42.105 36.3582 36.445 36.0782 34.815C35.2182 29.875 33.8783 23.785 33.0983 20.215C31.8983 14.755 31.2983 12.045 32.7483 10.835C33.3683 10.315 34.3483 10.135 35.1683 10.365C38.1583 11.195 38.1582 17.125 40.7083 27.365C42.0282 32.675 43.7083 37.825 44.1183 37.735C44.6483 37.615 43.9283 28.465 42.3483 18.825C41.4083 13.095 40.3983 8.59496 42.7083 6.79496C43.4983 6.18496 44.9083 5.70496 46.0883 6.21496C49.0783 7.49496 47.7082 13.835 49.2982 25.825C49.4182 26.725 50.6983 36.195 51.7283 36.145C52.6683 36.105 53.0682 28.205 53.1082 27.235C53.6382 16.605 51.8683 10.995 54.4383 9.54496C55.3983 9.00496 56.7083 9.19496 57.5083 9.69496C59.0383 10.645 59.0883 12.955 59.1683 23.355C59.1783 25.245 59.1883 26.195 59.1883 26.245C59.1983 29.325 59.4783 36.165 60.4483 51.105C61.1083 50.705 61.8783 50.165 62.5983 49.455C63.6383 48.425 64.1683 47.365 64.4783 46.745C66.1483 43.305 65.8783 39.295 68.2682 36.335C69.9282 34.285 72.6682 32.965 73.6082 33.665C74.2282 34.125 73.9483 35.375 72.7583 40.175C71.4683 45.375 70.8683 47.995 70.5883 48.765C68.6183 54.195 67.7983 56.965 67.1583 58.355C64.8083 63.475 62.2782 66.415 61.0482 68.175C58.1283 72.335 55.5883 79.585 57.7183 93.135" fill="white"/>
<path d="M35.4383 93.055C36.5283 76.945 36.6083 70.825 36.2283 69.735C36.2083 69.685 35.9283 68.895 35.5883 67.805C35.4183 67.275 35.2283 66.645 35.0283 65.915C33.4283 60.135 33.5383 57.195 31.9783 49.295C31.6483 47.635 31.5083 46.775 31.2183 45.655C27.9483 33.055 20.9683 26.025 23.5683 23.135C24.0983 22.555 25.0283 22.125 25.8383 22.265C27.4983 22.555 27.9283 24.845 29.9983 29.485C31.7083 33.325 31.6283 32.215 34.7783 38.715C35.9483 41.135 36.4682 42.335 36.7682 42.255C37.3482 42.105 36.3582 36.445 36.0782 34.815C35.2182 29.875 33.8783 23.785 33.0983 20.215C31.8983 14.755 31.2983 12.045 32.7483 10.835C33.3683 10.315 34.3483 10.135 35.1683 10.365C38.1583 11.195 38.1583 17.125 40.7083 27.365C42.0283 32.675 43.7083 37.825 44.1183 37.735C44.6483 37.615 43.9283 28.465 42.3483 18.825C41.4083 13.095 40.3983 8.59496 42.7083 6.79496C43.4983 6.18496 44.9083 5.70496 46.0883 6.21496C49.0783 7.49496 47.7082 13.835 49.2982 25.825C49.4182 26.725 50.6983 36.195 51.7283 36.145C52.6683 36.105 53.0682 28.205 53.1082 27.235C53.6382 16.605 51.8683 10.995 54.4383 9.54496C55.3983 9.00496 56.7083 9.19496 57.5083 9.69496C59.0383 10.645 59.0883 12.955 59.1683 23.355C59.1783 25.245 59.1883 26.195 59.1883 26.245C59.1983 29.325 59.4783 36.165 60.4483 51.105C61.1083 50.705 61.8783 50.165 62.5983 49.455C63.6383 48.425 64.1683 47.365 64.4783 46.745C66.1483 43.305 65.8782 39.295 68.2682 36.335C69.9282 34.285 72.6682 32.965 73.6082 33.665C74.2282 34.125 73.9483 35.375 72.7583 40.175C71.4683 45.375 70.8683 47.995 70.5883 48.765C68.6183 54.195 67.7983 56.965 67.1583 58.355C64.8083 63.475 62.2782 66.415 61.0482 68.175C58.1282 72.335 55.5883 79.585 57.7183 93.135" stroke="#1D1D1B" stroke-width="1.5" stroke-miterlimit="10" stroke-linecap="round" stroke-linejoin="round"/>
<path d="M52.4879 45.845L41.8379 58.065" stroke="#1D1D1B" stroke-width="1.5" stroke-miterlimit="10" stroke-linecap="round" stroke-linejoin="round"/>
<path d="M53.2688 57.275L41.0488 46.635" stroke="#1D1D1B" stroke-width="1.5" stroke-miterlimit="10" stroke-linecap="round" stroke-linejoin="round"/>
<path d="M41.2012 70.2811C44.1186 70.7281 47.43 71.283 50.3751 70.8776C51.8176 70.6791 53.2128 70.1065 54.5509 69.5555" stroke="black" stroke-width="1.5" stroke-linecap="round" stroke-linejoin="round"/>
</g>
</svg>
