<svg width="692" height="581" viewBox="0 0 692 581" fill="none" xmlns="http://www.w3.org/2000/svg">
<path d="M208.569 109.276C380.169 33.6764 528.569 149.276 606.569 199.776C684.569 250.276 749.569 529.174 606.569 512.777C419.069 491.277 462.569 560.776 175.069 543.776C-112.431 526.776 -5.93121 203.776 208.569 109.276Z" fill="#FED430"/>
<path d="M256.283 64.8643C263.539 66.3858 270.546 68.254 277.571 70.5957" stroke="black" stroke-width="1.5" stroke-linecap="round" stroke-linejoin="round"/>
<path d="M267.745 41.1201C275.315 43.3537 281.396 46.9863 288.215 50.9455" stroke="black" stroke-width="1.5" stroke-linecap="round" stroke-linejoin="round"/>
<path d="M342.254 24.7446C340.812 16.8927 339.994 8.9151 338.979 1" stroke="black" stroke-width="1.5" stroke-linecap="round" stroke-linejoin="round"/>
<path d="M375.824 28.0191C378.221 22.613 380.28 17.1651 382.374 11.6436" stroke="black" stroke-width="1.5" stroke-linecap="round" stroke-linejoin="round"/>
<path d="M410.213 64.8641C417.351 64.7526 424.393 63.7343 431.501 63.2266" stroke="black" stroke-width="1.5" stroke-linecap="round" stroke-linejoin="round"/>
<path d="M295.374 11.8254C295.691 7.07722 299.697 3.94265 304.365 5.67142C307.37 6.78463 307.057 12.7382 307.057 15.0947C307.057 17.7324 306.839 20.3454 307.586 22.8833C307.879 23.8821 310.951 25.8517 310.951 25.6718" stroke="black" stroke-width="1.5" stroke-linecap="round" stroke-linejoin="round"/>
<path d="M315.711 32.1631C316.451 32.7236 317.163 33.3009 317.874 33.8939" stroke="black" stroke-width="1.5" stroke-linecap="round" stroke-linejoin="round"/>
<path d="M410.82 18.3955C413.232 21.7354 415.877 25.6126 414.417 29.8303C413.475 32.5527 409.847 31.9061 407.672 31.1152C405.665 30.3854 404.903 29.378 402.982 29.9267C401.021 30.4871 399.325 32.064 398.678 34.006" stroke="black" stroke-width="1.5" stroke-linecap="round" stroke-linejoin="round"/>
<path d="M394.631 38.6309C393.86 39.4017 393.089 40.1726 392.318 40.9435" stroke="black" stroke-width="1.5" stroke-linecap="round" stroke-linejoin="round"/>
<path d="M485.438 191.336C486.756 191.406 488.333 191.499 488.593 191.534C490.61 191.79 491.229 195.093 489.112 195.756C485.058 197.128 481.184 197.582 476.99 197.687C474.883 197.745 472.976 198.233 470.979 198.489C469.74 199.106 468.282 199.106 466.854 198.466C466.645 198.373 466.455 198.222 466.295 198.059C465.956 198.28 465.616 198.489 465.257 198.675C464.128 199.245 462.84 199.559 461.612 199.664C460.004 199.792 458.646 198.745 457.109 198.826C456.499 198.861 456.05 198.605 455.751 198.21C455.441 198.198 455.171 198.094 454.942 197.908C453.574 198.175 452.226 198.501 450.818 198.652C450.288 198.71 449.749 198.71 449.23 198.594C446.474 199.513 444.097 200.478 440.962 199.955C440.722 199.908 440.473 199.873 440.223 199.815C437.217 204.084 434.301 208.399 431.276 212.737C427.172 218.622 422.908 224.263 417.925 229.148C417.675 229.392 417.416 229.555 417.156 229.648C416.258 230.823 415.359 232.021 414.47 233.219C414.141 233.673 413.751 233.882 413.372 233.917L412.713 234.754C412.423 235.301 412.084 235.824 411.674 236.301C411.165 236.755 410.666 237.208 410.156 237.662C409.677 238.023 409.158 238.278 408.619 238.465C406.801 239.744 404.574 239.907 402.557 239.174C402.577 239.186 402.597 239.209 402.617 239.221C402.557 239.197 402.497 239.162 402.437 239.139L402.288 239.069C401.589 238.79 400.93 238.395 400.321 237.918C400.221 237.836 400.111 237.755 400.011 237.674C399.012 236.836 398.224 235.755 397.654 234.266C397.235 233.521 396.925 232.719 396.696 231.87C396.596 231.649 396.506 231.428 396.426 231.207C395.987 230.602 395.617 229.927 395.318 229.218C394.848 228.322 394.469 227.345 394.269 226.24C394.199 225.833 392.599 220.683 392.569 220.276C390.569 212.776 389.069 208.776 386.569 208.276C387.028 216.383 388.699 231.635 388.569 239.776C388.559 240.463 388.408 240.927 388.069 241.276C388.069 241.311 387.069 241.753 387.069 241.776C387.658 247.615 386.316 244.554 384.069 249.776C380.152 254.182 381.029 252.836 377.614 255.434C377.664 255.489 377.712 255.546 377.759 255.606C380.285 258.723 383.091 261.165 385.158 264.771C387.385 268.656 389.392 272.924 391.179 277.111C392.897 281.112 394.724 286.928 394.964 292.383C395.353 292.999 395.653 293.72 395.823 294.581C397.39 302.455 398.798 310.364 400.047 318.308C401.554 319.983 402.104 322.484 402.263 325.356C402.663 326.008 402.962 326.81 403.142 327.776C403.951 332.242 406.607 336.476 408.035 340.802C409.024 343.78 409.982 346.769 410.931 349.77C411.091 350.037 411.231 350.328 411.35 350.654C412.858 354.806 414.356 358.946 415.864 363.099C416.403 364.599 417.012 366.088 417.332 367.635C417.731 368.088 418.091 368.635 418.37 369.31C419.269 371.461 420.168 373.625 421.066 375.776C421.306 376.137 421.526 376.486 421.755 376.835L421.765 376.823C421.765 376.835 421.775 376.846 421.775 376.858C423.023 378.824 424.112 380.847 424.761 383.243C424.951 383.965 425.021 385.197 425.13 386.454C425.48 387.047 425.789 387.756 426.009 388.582C426.688 391.083 427.697 393.06 429.055 395.13C429.804 396.27 430.073 397.48 430.003 398.643C430.243 399.317 430.463 399.992 430.672 400.678C430.682 400.713 430.702 400.736 430.712 400.771C432.899 406.726 434.028 412.972 435.356 419.171C436.224 420.206 436.824 421.625 436.913 423.44C436.943 424.01 437.003 424.556 437.073 425.103C437.083 425.126 437.093 425.138 437.103 425.161C438.461 428.36 439.3 431.686 439.57 435.071C439.789 435.292 439.969 435.559 440.099 435.92C441.697 440.363 442.685 444.934 443.154 449.668C443.504 449.935 443.754 450.33 443.823 450.865C444.273 454.425 441.437 457.6 438.401 458.03C434.098 461.74 429.674 466.021 424.931 468.51C422.564 469.754 420.068 469.615 417.601 470.359C414.885 471.185 412.549 473.034 409.862 473.941C410.242 475.046 410.392 476.302 410.182 477.71C410.022 478.815 409.823 479.908 409.613 481.001C409.543 481.408 409.483 481.827 409.413 482.246C409.683 483.269 409.773 484.444 409.593 485.747C408.544 493.47 407.206 501.379 407.116 509.218C407.057 514.417 407.656 519.418 407.726 524.501C407.815 524.768 407.875 525.047 407.875 525.338V525.641C407.875 525.699 407.865 525.757 407.865 525.815C407.905 525.827 407.935 525.827 407.965 525.838C408.025 525.85 408.085 525.862 408.145 525.885C408.165 525.896 408.175 525.896 408.195 525.908C408.295 525.955 408.395 526.001 408.484 526.059C408.504 526.071 408.524 526.094 408.544 526.106L408.545 526.106C408.614 526.152 408.684 526.199 408.744 526.257C409.064 526.536 409.303 526.92 409.383 527.374C409.393 527.408 409.393 527.432 409.403 527.467C409.403 527.501 409.413 527.536 409.423 527.571C409.493 527.99 409.583 528.409 409.693 528.827C409.753 529.025 409.813 529.235 409.872 529.432L409.962 529.711C409.962 529.702 409.977 529.741 410.011 529.838L410.032 529.898C410.362 530.723 410.342 531.596 409.922 532.27C409.972 532.805 410.032 533.34 410.082 533.875C410.172 534.096 410.242 534.329 410.272 534.596C411.011 541.528 415.365 546.064 419.738 550.414C420.108 550.461 420.487 550.635 420.847 550.996C422.824 552.985 424.901 554.706 427.118 556.265C430.223 558.242 433.339 560.126 435.236 563.999C437.283 568.186 436.993 573.002 433.918 576.503C425.76 585.784 411.53 574.397 404.81 568.151C404.73 568.07 404.67 567.989 404.6 567.907C399.717 565.558 395.144 562.499 390.64 559.207C385.957 555.799 384.07 552.101 385.178 545.471C385.368 544.378 386.047 543.901 386.766 543.901C386.896 542.308 387.245 540.854 387.844 539.481C388.004 538.039 388.094 536.597 388.044 535.062C388.004 533.759 388.074 532.363 388.304 531.084C388.503 529.967 389.492 528.699 389.342 527.618C389.272 527.129 389.332 526.699 389.472 526.327C389.063 525.012 388.563 523.733 387.964 522.5C386.776 520.058 390.011 517.86 391.199 520.302C391.429 520.767 391.639 521.232 391.839 521.698C392.168 508.799 388.004 495.924 385.877 483.246C384.449 484.107 382.662 484.339 381.124 483.781C380.784 484.142 380.345 484.362 379.856 484.386C378.837 484.432 377.979 483.339 377.979 482.199V482.048C377.979 481.606 378.088 481.222 378.278 480.885C375.52 473.716 374.3 466.274 373.046 458.622L372.926 457.891C372.856 457.332 372.846 456.786 372.876 456.262C372.606 454.983 372.347 453.715 372.077 452.436C371.947 451.831 371.897 451.273 371.897 450.726C371.678 450.237 371.488 449.714 371.338 449.167C369.7 443.271 369.201 436.571 368.163 430.5L362.91 399.655C362.491 399.027 362.181 398.271 362.022 397.375C361.862 396.514 361.782 395.735 361.742 394.979C361.542 393.304 361.163 391.606 360.584 390.071C360.074 388.722 359.965 387.407 360.134 386.198C360.064 386.012 359.994 385.849 359.935 385.663C357.598 378.428 356.21 370.519 354.413 363.075C351.257 350.002 349.31 337.057 348.112 323.693C348.062 324.821 347.992 325.926 347.902 326.961C347.433 332.207 345.495 336.766 344.736 341.872C344.018 346.676 343.968 350.863 342.07 355.329C340.702 373.287 338.126 391.106 335.839 408.924C335.799 409.204 335.749 409.471 335.69 409.727C335.66 409.96 335.62 410.192 335.57 410.413C335.542 410.805 335.496 411.197 335.449 411.599L335.44 411.681C334.351 420.404 331.196 428.65 329.479 437.269C330.847 448.865 329.019 459.845 325.894 470.847C325.884 470.917 325.874 470.975 325.864 471.045C325.324 473.802 324.785 476.57 324.246 479.326C324.126 479.919 323.956 480.455 323.747 480.931C323.657 481.257 323.547 481.559 323.417 481.862C323.257 482.35 323.068 482.851 322.828 483.374C321.74 485.735 319.872 486.654 318.005 486.537C317.416 494.761 315.828 502.879 314.091 510.893C313.921 511.66 313.671 512.346 313.362 512.974C313.032 517.243 313.382 521.895 313.591 526.071C313.721 526.071 313.861 526.094 314.001 526.106C314.071 525.978 314.151 525.873 314.24 525.768L314.27 525.734C314.35 525.641 314.44 525.571 314.54 525.501C314.56 525.489 314.58 525.466 314.61 525.454C314.7 525.396 314.8 525.35 314.91 525.315L314.91 525.315C314.94 525.303 314.97 525.292 315.009 525.28C315.149 525.245 315.299 525.222 315.469 525.222C315.658 525.222 315.828 525.257 315.988 525.303C316.028 525.315 316.078 525.327 316.118 525.35C316.128 525.35 316.128 525.361 316.138 525.361C316.447 525.094 316.827 524.931 317.236 524.908C317.646 524.885 318.035 525.071 318.345 525.35C319.054 524.919 320.012 524.989 320.551 525.71C321.7 527.246 322.608 528.897 323.188 530.828C323.527 531.945 322.808 533.224 321.879 533.515C320.851 533.84 319.902 533.108 319.573 531.991C319.263 530.956 318.704 529.944 318.085 529.072C317.835 529.234 317.546 529.339 317.236 529.351H317.186C317.386 530.328 317.266 531.293 316.937 532.189C316.847 532.491 316.777 532.794 316.727 533.108C316.647 533.619 316.517 534.108 316.317 534.55C317.286 537.492 318.225 540.517 318.225 543.657C319.463 544.68 320.501 545.867 320.851 547.809C321.39 550.845 320.641 553.822 318.604 555.648C317.546 557.858 316.008 558.137 314.42 558.614C314.031 559.021 313.621 559.417 313.142 559.812C312.553 560.289 311.804 560.429 311.085 560.382C308.619 562.045 305.942 563.371 303.396 564.813C301.808 566.814 300.001 568.594 297.964 570.175C297.634 570.431 297.315 570.594 296.995 570.71C293.79 574.583 287.869 577.247 283.914 578.619C280.24 579.899 277.573 579.713 275.107 578.363C274.977 578.34 274.837 578.294 274.698 578.247C274.238 578.154 273.799 577.98 273.419 577.712C273.331 577.655 273.232 577.586 273.133 577.517L273.13 577.514C271.342 576.491 269.984 575.118 269.116 572.792C268.946 572.362 268.856 571.932 268.806 571.501C267.318 565.569 273.369 559.01 276.934 556.009C280.1 553.345 283.545 551.077 286.85 548.67L287.239 548.356C287.519 547.681 287.948 547.065 288.617 546.576C289.726 545.75 290.585 544.832 291.314 543.727C291.374 543.61 291.413 543.482 291.493 543.354C291.773 542.889 292.043 542.436 292.292 541.97C292.392 541.761 292.492 541.552 292.592 541.331C292.712 541.04 292.851 540.796 293.011 540.575C294.719 537.074 295.488 533.596 295.138 529.188C295.018 527.688 295.827 526.408 296.846 525.606C296.916 525.222 297.035 524.873 297.185 524.547C296.626 519.279 297.105 513.696 296.995 508.508C296.846 501.437 296.506 494.388 296.027 487.34C296.007 487.293 295.997 487.259 295.967 487.212C295.647 486.154 295.498 485.153 295.498 484.223C294.08 483.816 292.652 483.409 291.224 483.013C290.784 482.885 290.385 482.723 290.005 482.525C288.538 482.292 287.299 481.734 286.301 480.943C285.023 480.466 283.735 479.978 282.456 479.501C281.298 479.187 280.19 478.652 278.921 477.966C278.262 477.605 277.703 477.163 277.234 476.674C275.476 475.779 273.799 474.709 272.311 473.267C269.745 471.801 267.178 470.347 264.612 468.882C261.906 467.346 259.18 465.916 257.123 463.555C256.803 463.671 256.464 463.694 256.134 463.543C254.347 462.729 252.969 460.589 253.069 458.274C253.129 456.925 253.618 455.506 254.187 454.122C254.387 452.947 254.796 451.866 255.405 450.889C255.385 450.633 255.395 450.377 255.455 450.098C257.373 440.828 260.578 432.023 263.833 423.289C263.853 423.184 263.873 423.068 263.903 422.951C264.472 420.997 265.051 419.043 265.621 417.089C266.489 409.762 269.066 403.283 271.063 396.177C272.221 392.048 273 387.942 274.358 384.127C274.348 383.022 274.628 381.824 275.327 380.626L275.357 380.592C275.367 380.51 275.377 380.429 275.397 380.347C276.934 372.904 279.001 365.704 281.548 358.691C281.558 358.039 281.668 357.353 281.917 356.644C284.863 348.351 286.421 339.662 287.869 330.881C288.867 324.81 289.566 317.82 291.364 311.69C291.274 310.864 291.314 309.969 291.553 308.992C293.051 302.792 294.659 296.616 296.356 290.487C296.157 289.463 296.227 288.3 296.676 287.021C297.345 285.125 298.024 283.229 298.693 281.333C298.733 280.996 298.793 280.659 298.893 280.31C300.001 276.332 303.486 267.237 307.87 262.829C307.5 261.945 307.32 261.003 307.311 260.014C307.111 259.177 304.529 252.8 304.569 251.776C304.808 245.286 303.649 242.778 303.569 236.276C303.559 235.276 303.159 220.312 303.069 219.276C302.02 224.033 296.87 242.652 293.305 245.024C291.278 246.385 289.54 245.431 287.963 243.919C287.923 243.896 287.893 243.896 287.853 243.873C284.098 242 279.914 236.069 277.278 232.44L277.021 232.087C274.315 228.371 271.53 224.548 269.439 220.309C269.21 220.216 268.99 220.053 268.79 219.82C266.903 217.529 265.156 214.633 263.348 211.853C262.879 211.9 262.4 211.713 262.01 211.155C260.093 208.41 258.086 205.793 255.959 203.293C255.919 203.281 255.859 203.246 255.729 203.153C255.559 203.06 255.38 202.955 255.2 202.862C254.9 202.7 254.601 202.548 254.291 202.397L254.261 202.382C253.853 202.179 253.483 201.994 253.123 201.688C252.634 201.281 252.923 201.362 252.584 201.292C251.765 201.129 251.256 200.152 251.226 199.222C248.729 197.756 246.293 197.361 243.397 196.768C241.36 196.337 239.293 196.093 237.436 195.058C237.096 194.86 236.866 194.604 236.707 194.314C233.911 194.046 231.065 193.93 228.259 193.965C227.56 193.976 227.061 193.604 226.771 193.081C225.912 192.964 225.063 192.767 224.225 192.511C222.777 192.825 221.319 192.964 219.851 192.837C219.392 192.79 218.982 192.604 218.653 192.29C217.724 192.243 216.815 192.162 215.907 192.034C215.547 192.127 215.178 192.22 214.788 192.29C213.071 192.569 211.243 191.953 209.616 191.359C209.067 191.162 208.707 190.766 208.507 190.289C206.92 189.789 205.332 189.266 203.714 188.731C202.965 188.487 202.566 187.882 202.436 187.196C202.256 187.161 202.087 187.137 201.907 187.091C199.56 186.451 200.559 182.252 202.905 182.88C204.473 183.311 206.121 183.241 207.748 183.404C206.321 182.043 208.078 178.961 210.095 179.961C214.359 182.078 219.162 186.335 224.135 188.103L224.135 188.103C224.245 188.091 224.355 188.08 224.464 188.091C219.891 185.381 215.637 181.671 211.902 177.728C210.724 176.483 211.643 173.913 213.231 174.006C216.765 174.215 218.902 176.495 221.948 178.275C224.864 179.984 228.379 180.892 231.594 181.694C231.744 180.799 232.333 180.008 233.351 180.008C234.37 180.008 234.949 180.799 235.109 181.694C235.139 181.729 235.169 181.752 235.199 181.776C235.598 181.473 236.088 181.322 236.607 181.462C238.584 181.985 240.571 180.752 242.558 180.706C244.455 180.659 246.093 181.136 247.841 181.962C248.23 182.148 248.54 182.462 248.769 182.834C252.334 183.136 255.28 184.253 257.507 187.417C257.706 187.579 257.876 187.812 257.996 188.126C258.006 188.149 258.016 188.184 258.026 188.207C258.535 189.057 259.004 190.033 259.434 191.162C260.363 192.592 261.491 193.802 262.509 195.232C262.529 195.244 262.549 195.256 262.569 195.279L262.559 195.291C262.659 195.43 262.759 195.57 262.859 195.721C262.939 195.849 263.009 195.965 263.059 196.093C265.944 198.105 268.161 200.792 270.338 203.828C271.686 205.7 273.014 207.433 274.402 209.073L274.403 209.073C274.472 209.108 274.542 209.143 274.612 209.19C277.168 210.864 279.585 212.714 281.921 214.796C282.141 214.993 282.311 215.214 282.431 215.459C282.87 213.737 283.319 212.016 283.779 210.295C283.749 209.085 283.709 207.887 283.699 206.701C283.699 206.48 283.719 206.293 283.759 206.107C283.239 206.119 282.72 205.933 282.411 205.479C281.732 204.467 281.582 203.235 282.351 202.234C282.241 201.629 282.171 200.978 282.161 200.28C282.081 192.232 282.86 185.218 285.596 177.798C287.384 172.971 287.953 168.016 289.91 163.538C290.01 162.992 290.14 162.457 290.289 161.922C290.15 161.294 290.08 160.642 290.1 159.968C290.169 159.13 290.269 158.304 290.379 157.479C290.639 156.781 290.888 156.095 291.138 155.397C291.368 154.908 291.707 154.396 292.037 153.931C291.967 152.349 291.637 150.791 292.027 149.163C292.596 146.755 294.004 144.859 295.662 143.37C296.121 142.952 298.218 141.347 298.907 141.207C299.306 140.812 299.696 140.416 300.095 140.021C300.694 139.416 301.353 138.962 302.042 138.625C302.412 138.183 302.841 137.776 303.33 137.427L307.045 134.74C307.904 134.124 308.763 133.752 309.621 133.589C310.44 132.961 311.289 132.367 312.188 131.867C312.288 131.821 312.377 131.774 312.477 131.728C313.126 131.135 313.825 130.588 314.594 130.111C315.473 129.564 316.591 129.088 317.57 128.715C317.807 128.627 319.102 128.012 318.609 128.323C320.154 127.371 321.388 126.306 323.092 125.622C323.871 125.075 324.73 124.668 325.638 124.389C327.446 123.016 329.453 122.714 331.63 123.26C331.919 123.33 332.199 123.423 332.488 123.505C333.297 122.318 334.166 121.202 335.065 120.12C335.055 120.062 335.025 120.027 335.015 119.969C334.845 118.957 334.815 118.003 334.915 117.015C334.905 116.759 334.925 116.503 335.005 116.27C335.105 115.991 335.224 115.735 335.374 115.514C335.195 114.281 334.965 113.072 334.715 111.851C334.286 111.385 334.066 110.676 334.326 109.815C334.366 109.676 334.406 109.548 334.446 109.408C334.505 109.222 334.585 109.071 334.675 108.92C334.645 108.838 334.625 108.768 334.595 108.687C334.456 108.268 334.346 107.85 334.246 107.454C332.568 107.931 326.118 109.606 323.671 105.977C323.551 105.791 323.431 105.582 323.322 105.361C322.713 104.942 322.313 104.29 321.994 103.476C321.874 103.186 321.744 102.941 321.534 102.72C321.285 102.464 321.374 102.616 320.995 102.72C319.827 103.046 318.628 102.86 318.059 101.499C317.999 101.359 317.969 101.22 317.939 101.08C317.88 100.615 317.71 100.382 317.61 100.278C317.121 99.7661 316.092 99.8707 315.163 100.72C315.343 98.9403 315.892 97.8353 316.551 97.1375L316.561 97.1258C316.731 96.6257 316.891 96.1256 317.051 95.6255V95.5789C317.151 92.7991 317.81 90.1706 318.189 87.4257C318.469 83.5642 318.848 79.7493 319.657 75.9925C319.547 74.9341 319.647 73.7826 320.006 72.5963C320.226 71.8635 320.426 71.1191 320.646 70.3864C320.765 69.2931 321.025 68.1998 321.414 67.1414C321.654 66.4784 321.904 65.8503 322.163 65.2223C322.303 64.6524 322.483 64.0708 322.713 63.4776C323.581 61.2561 325.099 59.2673 326.827 57.8715C327.116 57.6389 327.486 57.4063 327.885 57.1853C328.744 56.1734 329.912 55.3942 331.44 54.9871C333.996 54.3125 336.423 53.7193 338.869 53.4053C340.537 52.4167 342.574 51.9979 344.212 52.7772C344.591 52.9517 344.98 53.1843 345.38 53.4169C345.609 53.4518 345.839 53.4751 346.079 53.51C346.708 53.6146 347.277 53.8589 347.806 54.1846C348.146 54.2427 348.485 54.3009 348.835 54.4055C349.214 54.5218 349.604 54.6265 349.993 54.7428C350.333 54.8475 350.652 54.9638 350.962 55.1034C351.85 54.5567 352.879 54.1729 354.047 54.0334C355.286 53.8821 356.394 53.8356 357.532 53.8938C357.872 53.8473 358.221 53.8124 358.591 53.824C360.218 53.8589 361.546 54.2078 362.685 54.7777C363.304 55.0569 363.853 55.4291 364.332 55.871C364.822 56.2897 365.271 56.7434 365.7 57.2551C367.049 57.8948 368.217 59.1626 368.996 61.1864C369.495 62.489 369.974 63.8033 370.434 65.1292C370.983 65.8969 371.452 66.7924 371.802 67.8276C372.94 71.2355 373.05 75.4924 373.12 79.0979C373.19 82.75 373.669 86.4254 374.038 90.0543C375.157 90.4846 375.486 92.0548 375.027 93.1597C375.087 93.3574 375.117 93.5552 375.117 93.7645V93.8343C375.117 95.0672 374.258 95.9627 373.24 96.0209C373.13 96.0325 373.02 96.0209 372.91 95.9976C372.93 96.114 372.95 96.2419 372.95 96.3582V96.428C372.95 97.6609 372.091 98.5564 371.073 98.6146C370.823 98.6262 370.573 98.5681 370.354 98.4518L370.354 98.4519C370.264 98.5216 370.174 98.5914 370.084 98.6495C370.054 98.7193 370.014 98.7658 369.984 98.8356C369.695 99.4636 369.535 100.092 369.086 100.603C368.137 101.708 366.629 102.36 365.311 102.43C365.041 102.441 364.802 102.36 364.572 102.243C364.163 103.267 363.683 104.279 363.094 105.291C361.786 107.524 360.847 109.838 359.629 112.037C359.18 114.281 357.662 115.968 355.825 116.933C355.795 117.108 355.765 117.294 355.735 117.468C355.735 117.503 355.745 117.526 355.755 117.561C355.925 118.434 356.124 119.271 356.354 120.109C356.484 120.178 356.604 120.236 356.733 120.318C358.441 121.4 360.188 122.411 361.946 123.365C362.825 122.737 363.873 122.446 364.902 122.388C366.19 122.318 367.648 123.051 368.626 124.051C369.026 124.214 369.415 124.447 369.815 124.738C371.652 126.098 374.058 126.424 376.056 127.541C376.705 127.901 377.334 128.297 377.953 128.692C379.451 128.878 380.958 129.122 382.426 129.471C383.904 129.82 385.112 130.576 386.451 131.239C387.449 130.925 388.478 130.96 389.556 131.181C391.343 131.53 393.241 132.298 394.659 133.705C395.507 134.24 396.186 135.101 396.666 136.089C396.816 136.206 396.955 136.345 397.085 136.496C397.515 136.787 397.924 137.136 398.263 137.601C399.432 139.23 400.53 140.858 401.029 142.952C401.309 144.115 401.369 145.301 401.279 146.487C403.366 148.86 404.854 151.989 405.423 155.315C405.583 156.246 405.593 157.165 405.473 158.049C407.121 161.328 408.609 164.69 409.717 168.191C410.985 172.203 411.914 176.274 413.302 180.24C413.781 181.613 414.37 183.055 414.35 184.59V184.602C414.7 184.858 414.989 185.265 415.129 185.846C415.249 186.346 415.389 186.847 415.509 187.347C416.687 188.452 416.307 191.266 414.37 191.266H414.32C413.991 191.429 413.641 191.557 413.342 191.755C413.162 191.813 413.162 191.813 413.342 191.766C413.222 191.929 413.102 192.104 412.992 192.278C412.473 192.976 411.824 193.558 411.115 193.988C410.845 194.151 410.586 194.232 410.336 194.256C410.136 194.604 409.597 195.43 408.609 195.837C408.139 196.035 407.71 196.07 407.41 196.058C408.159 198.012 408.948 200.583 409.457 203.677C409.927 206.549 410.027 209.097 409.987 211.132L415.089 206.596L415.269 206.456C415.598 205.84 415.958 205.258 416.347 204.712C416.767 203.886 417.376 203.118 418.215 202.467C418.524 202.234 418.824 202.002 419.123 201.769C419.463 201.513 419.812 201.304 420.152 201.153C421.44 200.269 422.708 199.35 423.976 198.419C425.095 194.965 429.379 193.465 431.555 191.069C433.173 189.289 434.192 187.254 436.368 186.253C437.127 185.905 439.863 185.916 441.381 185.672C441.521 185.335 441.721 185.032 441.98 184.8C443.958 183.055 449.39 181.624 452.825 182.869C453.154 182.846 453.504 182.915 453.863 183.136C454.273 183.404 454.692 183.648 455.111 183.892L455.111 183.892C456.03 183.543 457.178 183.939 458.107 184.323C458.896 184.648 459.685 184.974 460.464 185.288C460.603 185.207 460.763 185.137 460.943 185.09C461.902 184.846 462.93 184.741 463.879 184.427C464.029 184.09 464.288 183.799 464.698 183.59C465.237 183.322 465.776 183.043 466.315 182.776C466.605 182.625 466.884 182.578 467.164 182.578C467.633 182.404 468.093 182.229 468.552 182.031C468.802 181.869 469.061 181.717 469.331 181.601C469.471 181.543 469.62 181.496 469.77 181.438C469.77 181.438 469.78 181.427 469.79 181.427C470.01 181.147 470.299 180.938 470.669 180.845C471.678 180.124 472.606 179.287 473.725 178.752C475.881 177.705 477.919 177.228 479.786 179.042C480.704 179.926 480.395 181.834 479.406 182.462C479.097 182.66 478.787 182.811 478.478 182.985C478.308 183.578 477.929 184.102 477.269 184.334C475.622 184.916 474.014 185.044 472.357 185.323C472.247 185.439 472.117 185.544 471.957 185.637C470.359 186.567 468.892 187.638 467.523 188.975C467.484 189.022 467.434 189.045 467.394 189.08C468.103 189.231 468.802 189.487 469.491 189.696C469.75 189.475 470.02 189.254 470.29 189.057C472.117 187.731 474.653 188.068 475.292 190.278C477.938 189.045 481.503 188.847 483.66 188.545C484.978 188.359 485.707 190.022 485.438 191.336Z" fill="white"/>
<path d="M374.338 90.2282C374.318 90.1933 374.308 90.1584 374.308 90.1584C374.298 90.1351 374.288 90.1118 374.278 90.1002C374.198 89.8327 374.138 89.5768 374.078 89.2977C373.959 88.7394 373.869 88.1811 373.759 87.6228C373.649 87.0413 373.509 86.4714 373.349 85.9131C373.609 83.4822 373.349 81.284 373.27 78.8066C373.18 75.957 373.409 73.1656 372.74 70.3742C371.702 66.0591 369.136 61.6045 366.629 58.2432C366.19 57.65 365.7 57.2778 365.201 57.0568C365.001 56.7428 364.792 56.452 364.562 56.1845C363.883 55.3355 363.084 54.7306 362.156 54.3817C361.267 53.8351 360.298 53.5908 359.27 53.6257C358.83 53.649 358.391 53.7071 357.962 53.8002C357.123 53.5443 356.254 53.5094 355.276 53.6955C354.736 53.8002 354.227 53.963 353.698 54.1491C353.458 54.2305 353.218 54.3119 352.979 54.3701C352.869 54.3817 352.43 54.4748 352.36 54.4864C351.781 54.5678 351.221 54.7772 350.702 55.0796C346.838 52.2998 341.376 52.4277 337.072 53.2652C333.577 53.9514 327.835 54.6841 325.968 58.7898C325.119 59.3132 324.41 60.0576 323.921 61.3021C323.891 61.3835 323.871 61.4649 323.841 61.5464C321.604 64.4541 320.735 68.5249 320.296 72.4678C319.897 74.131 319.567 75.8291 319.277 77.5272C319.238 77.7715 319.228 77.9808 319.238 78.2018C317.62 83.5055 316.142 88.8441 314.814 94.2524C314.594 94.7991 314.365 95.3341 314.145 95.8808C313.456 97.5789 312.847 99.277 313.226 100.952C313.256 101.359 313.386 101.778 313.656 102.173C313.815 102.406 313.975 102.65 314.135 102.883C314.634 103.627 315.373 103.697 316.022 103.383C316.222 103.348 316.422 103.266 316.631 103.138C316.691 103.104 316.751 103.057 316.811 103.011C317.111 102.987 317.35 102.976 317.39 102.999C317.67 103.185 318.059 104.29 318.369 104.569C319.317 105.43 320.256 104.976 321.165 104.86C321.344 106.349 321.295 107.314 323.032 108.396C325.858 110.152 329.553 109.838 332.548 109.035C333.547 108.768 334.106 107.454 333.856 106.349C333.597 105.185 333.337 104.022 333.078 102.859C333.467 102.557 333.846 102.208 334.206 101.778C335.045 100.789 334.885 99.056 333.826 98.3582C332.648 97.5673 331.67 96.6484 330.821 95.4621C330.761 95.3574 330.681 95.2643 330.621 95.1713C330.082 93.0661 329.143 91.1121 328.574 88.9953C328.115 87.2506 327.835 85.4711 327.675 83.68L327.645 82.9821C327.655 82.9588 327.665 82.9356 327.675 82.9123C327.895 82.0051 328.165 81.1095 328.484 80.2488C329.033 79.9232 329.603 79.7255 330.192 79.6557C330.302 80.4 330.401 81.1444 330.481 81.8888C330.521 82.2843 330.631 82.6681 330.791 82.9937C330.771 83.2264 330.771 83.459 330.741 83.68C330.591 85.1338 331.54 85.8084 332.528 85.7503C333.297 87.1111 334.076 88.4719 334.845 89.8443C335.584 86.4132 335.714 84.9128 335.654 84.2034C335.644 84.0521 335.584 83.4939 335.794 82.8658C335.903 82.5401 336.083 82.2377 336.363 81.9004C337.012 81.1095 337.671 80.3652 338.18 79.4347C338.46 78.9113 338.52 78.3995 338.44 77.9459C338.939 77.597 339.448 77.2597 339.978 76.9573C341.785 75.9221 343.722 75.2476 345.5 74.1543C346.169 73.7355 346.438 73.0842 346.438 72.4212C348.505 70.5138 349.943 67.9782 350.133 64.8146C350.373 64.6518 350.592 64.4657 350.802 64.2447C351.052 64.3029 351.321 64.3494 351.611 64.3494C351.741 64.3494 351.85 64.3145 351.97 64.3029C352.35 65.6521 352.719 67.0594 353.059 68.5133C354.107 72.9679 354.786 77.1899 355.206 81.063C355.755 78.6089 356.294 76.1548 356.843 73.7123C356.883 74.4218 357.013 75.2127 357.343 76.0036C357.372 76.085 357.412 76.1664 357.452 76.2478C357.472 76.3874 357.482 76.527 357.512 76.6782C358.471 80.749 359.599 85.2618 359.639 89.4838C359.659 91.4145 359.569 93.3569 360.039 95.2411C360.528 97.23 361.696 98.6606 362.535 100.417C364.442 104.429 369.106 102.231 369.475 98.6024C371.013 99.1956 371.652 98.7885 371.912 98.5443C372.101 98.3582 372.171 98.1721 372.74 97.1136C373.05 96.5205 373.309 96.0436 373.479 95.7528C373.889 95.8691 374.128 95.7645 374.258 95.6714C374.777 95.3109 374.478 94.4618 375.017 93.194C375.357 92.4031 375.636 92.345 375.576 91.9844C375.466 91.3564 374.378 90.3328 374.338 90.2282Z" fill="black"/>
<path d="M318.967 541.86C318.258 537.847 318.118 533.753 318.617 529.694C318.637 529.542 318.637 529.38 318.627 529.228C319.676 526.995 316.61 525.018 315.292 527.24C314.523 528.542 313.345 529.345 312.097 529.926C312.007 528.03 311.767 526.158 311.148 524.564C309.97 521.529 307.403 520.947 304.767 520.831C302.301 520.726 298.916 520.563 296.948 522.645C295.85 523.808 295.421 525.414 295.69 526.914C295.201 526.984 294.722 527.263 294.362 527.809C292.565 530.531 293.034 533.113 293.034 536.335C293.034 539.208 292.305 541.511 291.187 543.674C288.96 544.43 286.513 547.349 284.616 548.28C281.63 549.745 278.984 551.49 276.348 553.723C271.495 557.829 267.052 562.702 268.589 570.297C268.999 572.321 271.106 572.181 272.014 570.821C272.194 570.541 272.434 570.367 272.703 570.239C273.223 570.727 273.912 570.902 274.551 570.623C274.561 570.623 274.581 570.623 274.591 570.623C274.85 570.797 275.14 570.902 275.449 570.925C275.739 570.948 276.019 570.96 276.308 570.983C276.867 571.146 277.397 571.297 277.896 571.46C278.086 571.658 278.315 571.821 278.605 571.925C278.655 572.437 278.715 572.949 278.765 573.461C278.675 574.577 279.693 575.729 280.642 575.647C286.334 575.124 289.729 572.426 294.712 569.553C296.978 568.25 299.465 567.738 301.432 565.796C303.509 563.749 304.717 560.818 306.824 558.783C307.094 558.527 307.263 558.224 307.343 557.922C311.008 555.433 314.693 553.095 316.979 548.745C317.868 547.047 318.357 545.407 318.547 543.779C318.897 543.279 319.096 542.639 318.967 541.86ZM310.459 549.28C310.429 549.524 310.369 550.245 309.9 550.792C309.71 551.013 309.51 551.141 309.36 551.222C307.613 552.665 305.636 553.979 303.739 555.328C303.579 555.444 303.449 555.572 303.339 555.712C301.632 556.421 300.124 557.457 298.616 558.562C298.246 558.306 297.787 558.236 297.248 558.457C293.583 559.981 290.348 562.923 287.412 565.936C287.432 565.831 287.432 565.703 287.442 565.587C288.85 562.539 290.637 559.841 292.764 557.445C292.794 557.422 292.824 557.41 292.854 557.387C300.194 551.967 304.527 550.536 307.923 546.977C309.191 545.651 310.988 543.511 312.776 540.301C313.484 543.29 313.075 544.942 312.526 545.907C311.867 547.047 310.639 547.838 310.459 549.28Z" fill="black"/>
<path d="M333.996 98.7646C334.016 100.579 334.555 102.196 334.975 103.894C335.384 105.545 335.874 106.999 336.543 108.523C337.541 110.791 338.59 112.722 340.107 114.559C341.525 116.281 342.913 118.153 344.701 119.421C345.22 119.782 345.719 120.119 346.249 120.445C346.818 120.794 347.647 120.619 348.266 120.619C349.174 120.619 349.893 120.352 350.732 119.956C351.591 119.549 352.569 119.247 353.378 118.723C355.266 117.502 356.963 116.281 358.441 114.431C359.12 113.571 359.739 112.536 360.208 111.5C360.688 110.442 361.337 109.535 361.866 108.5C362.815 106.65 363.084 106.476 363.434 105.662C363.913 104.522 364.133 103.498 364.243 102.824" stroke="#010202" stroke-width="1.5" stroke-linecap="round" stroke-linejoin="round"/>
<path d="M332.988 102.104C333.777 105.035 334.056 108.198 334.416 111.269C334.705 113.781 334.905 116.351 335.075 118.887C335.204 120.864 335.364 122.865 335.364 124.83C335.364 125.493 335.364 126.145 335.364 126.808C335.364 126.994 335.224 128.099 335.224 127.587" stroke="#010202" stroke-width="1.5" stroke-linecap="round" stroke-linejoin="round"/>
<path d="M334.955 119.178C334.226 121.376 332.628 122.551 331.26 124.051C330.531 124.854 329.353 125.342 328.524 125.854" stroke="#010202" stroke-width="1.5" stroke-linecap="round" stroke-linejoin="round"/>
<path d="M366.1 125.167C366.1 127.075 364.502 129.075 363.633 130.494C363.264 131.111 362.615 132.216 362.036 132.483C361.087 132.914 360.298 133.704 359.3 134.03C358.411 134.333 357.392 134.298 356.584 134.891C355.525 135.682 354.277 136.705 353.069 137.054C350.832 137.717 348.965 139.194 346.598 139.194C345.769 139.194 344.91 139.311 344.122 138.938C343.283 138.543 342.384 137.95 341.495 137.81C340.597 137.671 339.738 137.066 338.889 136.705C337.871 136.263 336.842 135.821 335.943 135.065C334.436 133.809 332.688 133.193 331.48 131.46C330.831 130.529 330.132 129.413 329.663 128.354C329.243 127.401 326.587 123.911 327.835 123.016C328.464 122.562 329.193 122.504 329.892 122.667C330.252 122.748 330.531 122.923 330.861 123.016C331.22 123.12 331.35 123.283 331.6 123.283C331.919 123.283 332.189 123.085 332.369 122.923" stroke="#010202" stroke-width="1.5" stroke-linecap="round" stroke-linejoin="round"/>
<path d="M327.835 123.016C324.7 124.039 322.752 125.493 321.544 126.691C320.895 127.319 319.966 128.215 318.479 128.947C317.5 129.436 316.342 129.32 315.313 129.517C313.236 129.901 311.868 131.716 310.111 132.937C308.623 133.972 307.055 134.774 305.547 135.751C301.593 138.31 297.838 141.451 294.284 144.696C291.777 146.987 292.107 151.965 291.178 155.384C290.13 159.234 289.78 163.363 288.382 167.085C287.743 168.783 287.513 170.656 287.114 172.447C286.695 174.331 285.826 176.064 285.456 177.937C284.887 180.879 283.809 183.81 283.12 186.73C282.401 189.777 282.271 193.406 282.201 196.581C282.171 198.233 281.861 199.884 281.752 201.524C281.682 202.652 281.842 203.571 281.462 204.595C281.242 205.188 286.275 206.316 286.954 206.339C288.752 206.398 290.958 207.049 292.726 207.572C295.012 208.235 297.479 208.677 299.816 208.956C302.512 209.282 303.63 209.712 305.308 209.538C306.776 209.387 307.964 209.003 308.773 208.677" stroke="#010202" stroke-width="1.5" stroke-linecap="round" stroke-linejoin="round"/>
<path d="M364.922 121.678C366.1 122.259 367.897 123.166 370.074 124.364C372.521 125.702 372.75 126.225 374.158 126.633C376.555 127.33 378.602 128.924 381.068 129.238C383.535 129.552 385.622 131.25 388.188 131.25C390.535 131.25 391.983 132.146 393.99 133.274C394.778 133.716 395.707 134.251 396.776 135.228C397.505 135.902 399.602 137.88 400.68 141.241C401.469 143.695 400.83 144.172 401.748 146.579C402.507 148.545 403.126 148.754 404.085 150.662C405.253 153 405.233 154.5 405.843 157.245C406.532 160.385 407.101 160.839 408.958 165.875C409.697 167.864 410.725 171.284 412.763 178.029C413.701 181.158 414.949 185.299 416.397 190.242C415.838 190.556 415.029 191.044 414.071 191.696C413.032 192.394 412.273 192.987 411.934 193.254C409.118 195.453 407.44 196.883 405.393 198.465C401.489 201.477 399.671 202.419 398.643 202.908C397.285 203.548 396.127 203.943 395.318 204.199" stroke="#010202" stroke-width="1.5" stroke-linecap="round" stroke-linejoin="round"/>
<path d="M242.678 183.822C246.772 182.984 252.734 182.17 256.318 185.229C257.766 186.462 258.355 188.579 259.144 190.3C260.163 192.545 261.431 194.22 263.228 195.697C267.912 199.547 271.127 204.978 275.251 209.491C276.739 211.12 289.96 222.053 289.66 222.378" stroke="#010202" stroke-width="1.5" stroke-linecap="round" stroke-linejoin="round"/>
<path d="M282.55 215.935C283.02 214.26 283.449 212.167 283.649 209.747C283.759 208.398 283.779 207.154 283.749 206.037" stroke="#010202" stroke-width="1.5" stroke-linecap="round" stroke-linejoin="round"/>
<path d="M241.48 191.894C242.209 192.208 241.57 191.661 241.3 191.44C240.781 191.01 240.212 190.696 239.672 190.312C238.814 189.707 238.065 189.137 237.416 188.265C236.187 186.614 234.929 185.125 233.431 183.776C232.623 183.054 230.825 181.787 232.003 180.496C232.752 179.67 233.701 180.112 234.43 180.647C236.407 182.089 237.875 184.159 239.852 185.602C240.731 186.241 241.959 186.835 243.008 186.835C243.657 186.835 244.545 186.904 245.174 187.09C246.233 187.416 247.212 187.253 248.23 187.846" stroke="#010202" stroke-width="1.5" stroke-linecap="round" stroke-linejoin="round"/>
<path d="M237.316 195.139C236.417 194.79 235.498 194.72 234.55 194.604C233.691 194.511 233.002 194.208 232.193 193.871C231.095 193.417 229.966 192.987 228.938 192.347C228.239 191.905 227.79 191.324 227.23 190.719C226.691 190.138 226.042 189.719 225.513 189.102C224.464 187.869 223.366 186.648 222.248 185.508C221.199 184.45 219.981 183.531 218.822 182.624C217.884 181.88 217.145 181.182 216.825 179.926C216.606 179.065 217.774 178.483 218.393 178.414C219.202 178.321 220.131 178.367 220.85 178.774C221.978 179.391 222.996 180.321 223.755 181.438C224.464 182.473 225.183 183.496 226.162 184.252C227.879 185.578 229.317 187.73 231.364 188.532C232.313 188.905 233.122 189.277 234.12 189.44C235.179 189.614 236.187 189.73 237.236 189.986C238.035 190.184 238.824 190.521 239.622 190.754C239.962 190.859 240.851 191.149 241.01 191.487" stroke="#010202" stroke-width="1.5" stroke-linecap="round" stroke-linejoin="round"/>
<path d="M234.55 194.616C232.682 194.65 231.045 194.523 229.697 194.336C227.43 194.022 225.723 193.534 225.153 193.371C223.685 192.941 222.218 192.348 220.82 191.719C219.322 191.045 217.604 190.626 216.266 189.568C215.048 188.614 213.77 187.765 212.571 186.776C211.453 185.857 210.145 185.264 209.007 184.345C208.308 183.776 207.159 182.961 207.159 181.868C207.159 181.112 207.669 180.17 208.368 179.891C209.057 179.623 210.485 179.902 211.094 180.344C211.823 180.879 212.681 181.159 213.43 181.659C214.888 182.647 216.256 183.81 217.794 184.659C218.623 185.113 219.372 185.718 220.2 186.172C220.909 186.555 221.678 186.858 222.377 187.242C222.617 187.369 223.096 187.544 223.755 187.858C224.095 188.021 224.364 188.16 224.544 188.253" stroke="#010202" stroke-width="1.5" stroke-linecap="round" stroke-linejoin="round"/>
<path d="M225.153 193.36C223.146 193.267 220.2 193.104 216.606 192.813C213.69 192.569 212.182 192.592 211.183 192.197C207.898 190.917 204.623 189.196 201.657 187.172C200.759 186.556 200.569 186.276 200.609 185.125C200.639 184.357 201.547 183.439 202.067 183.078C202.376 182.857 202.965 182.601 204.383 182.671C205.242 182.706 206.52 182.88 208.038 183.508" stroke="#010202" stroke-width="1.5" stroke-linecap="round" stroke-linejoin="round"/>
<path d="M221.489 186.787C219.931 185.461 218.663 184.403 217.824 183.705C215.877 182.089 214.848 181.274 213.57 179.855C211.992 178.099 211.024 177.017 211.253 176.006C211.533 174.808 213.37 174.18 214.808 174.226C216.496 174.273 217.045 175.226 220.62 177.529C222.108 178.483 223.446 179.344 225.313 180.135C226.821 180.774 228.209 181.181 229.567 181.426C230.236 181.542 230.805 181.612 231.225 181.647" stroke="#010202" stroke-width="1.5" stroke-linecap="round" stroke-linejoin="round"/>
<path d="M234.999 181.147C236.088 181.147 237.236 181.403 238.324 181.229C239.093 181.101 239.862 180.81 240.641 180.752C242.139 180.635 243.617 180.414 245.125 180.67C245.983 180.81 247.042 181.124 247.721 181.705C248.12 182.043 248.799 182.415 248.969 182.973" stroke="#010202" stroke-width="1.5" stroke-linecap="round" stroke-linejoin="round"/>
<path d="M239.253 196.057C240.461 196.057 241.56 195.929 242.768 196.139C244.216 196.383 245.464 197.023 246.842 197.581C248.12 198.093 249.398 198.546 250.477 199.453C250.916 199.826 251.445 200.082 251.905 200.43C252.564 200.931 253.143 201.535 253.752 202.105C256.228 204.432 258.395 207.118 260.562 209.793C263.009 212.829 265.235 216.051 267.642 219.121C268.73 220.505 269.689 222.029 270.708 223.483C271.716 224.925 272.765 226.321 273.773 227.763C275.421 230.113 276.959 232.695 278.856 234.811C280.503 236.649 281.981 238.65 283.639 240.464C284.318 241.208 285.027 241.93 285.706 242.674C286.105 243.116 286.625 243.43 287.014 243.86C287.563 244.453 288.412 244.872 289.091 245.256C289.79 245.64 290.739 246.361 291.538 245.884C291.887 245.675 292.217 245.593 292.576 245.43C292.936 245.279 293.225 244.965 293.565 244.779C294.443 244.314 294.843 243.372 295.412 242.569C296.001 241.732 296.53 240.604 296.94 239.65C297.489 238.37 298.008 237.033 298.428 235.707C298.837 234.416 299.127 233.102 299.496 231.799C299.875 230.473 299.955 229.031 300.325 227.693C300.734 226.193 301.134 224.681 301.553 223.181C302.012 221.541 302.761 220.017 303.281 218.4C303.7 217.109 303.73 215.69 304.209 214.422C304.479 213.701 304.808 212.841 304.808 212.061C304.808 211.212 305.038 210.235 305.457 209.549" stroke="#010202" stroke-width="1.5" stroke-linecap="round" stroke-linejoin="round"/>
<path d="M407.79 197.232C407.959 198.744 408.329 200.268 408.718 201.734C409.008 202.838 408.968 204.048 409.248 205.141C409.627 206.595 409.737 211.155 409.737 209.643" stroke="#010202" stroke-width="1.5" stroke-linecap="round" stroke-linejoin="round"/>
<path d="M399.651 218.75C401.129 217.447 402.497 216.121 404.115 215.028C404.604 214.69 404.834 214.167 405.393 213.923C405.972 213.667 406.462 213.213 406.901 212.748C408.539 211.05 410.815 210.201 412.403 208.456C413.921 206.793 415.738 205.281 416.966 203.339C417.685 202.211 419.353 201.478 420.412 200.733C421.73 199.803 423.018 198.524 424.236 197.419C424.985 196.732 425.804 196.093 426.483 195.337C427.062 194.709 427.481 193.871 428.15 193.359C429.429 192.371 430.787 192.045 431.645 190.603C432.734 188.777 434.032 187.474 435.709 186.288C436.508 185.718 437.177 185.799 438.106 185.799C438.925 185.799 439.724 185.602 440.572 185.602C441.062 185.602 444.537 185.636 444.726 185.218" stroke="#010202" stroke-width="1.5" stroke-linecap="round" stroke-linejoin="round"/>
<path d="M440.592 185.601C441.531 184.624 443.179 183.193 445.535 182.414C446.094 182.228 447.902 181.914 450.229 181.914C451.906 181.914 453.494 182.507 455.002 183.275C456.21 183.88 457.538 183.903 458.716 184.485C459.425 184.833 460.753 184.88 461.542 184.833C462.641 184.764 463.699 183.891 464.588 183.287C465.576 182.6 466.994 182.263 468.083 181.775C469.061 181.344 470.06 180.821 470.949 180.181C472.506 179.065 474.324 177.855 476.251 177.855C477.299 177.855 478.967 177.599 479.666 178.669C480.525 179.983 479.906 181.414 479.217 182.542C477.998 184.554 474.294 185.799 472.147 185.799C471.688 185.799 470.779 186.392 469.71 187.195C469.131 187.625 468.702 188.044 468.432 188.311" stroke="#010202" stroke-width="1.5" stroke-linecap="round" stroke-linejoin="round"/>
<path d="M462.96 187.532C464.288 188.079 465.876 188.463 467.294 188.707C467.933 188.812 468.502 189.277 469.151 189.277" stroke="#010202" stroke-width="1.5" stroke-linecap="round" stroke-linejoin="round"/>
<path d="M443.278 197.5C445.066 198.139 446.863 198.314 448.701 198.651C449.31 198.768 449.979 198.698 450.588 198.686C451.297 198.675 451.946 198.267 452.585 197.977C452.944 197.814 453.224 197.511 453.464 197.186C453.803 196.732 454.213 196.348 454.612 195.965C455.401 195.209 456.17 194.464 456.999 193.743C457.548 193.266 458.207 192.929 458.646 192.278C458.996 191.766 459.455 191.359 459.455 190.661C459.455 189.509 457.847 189.428 457.069 189.602C455.79 189.893 454.702 190.707 453.494 191.173C452.994 191.37 452.535 191.696 452.026 191.847C451.726 191.929 451.477 192.208 451.177 192.266C450.858 192.347 450.488 192.371 450.159 192.417C449.509 192.51 448.761 192.324 448.121 192.173C447.792 192.103 447.492 192.045 447.183 191.905C447.063 191.859 446.644 191.766 446.803 191.684" stroke="#010202" stroke-width="1.5" stroke-linecap="round" stroke-linejoin="round"/>
<path d="M452.216 198.314C454.003 198.698 455.84 198.488 457.598 198.977C458.976 199.361 460.474 199.652 461.902 199.652C464.019 199.652 466.076 198.686 467.693 197.221C468.003 196.942 468.272 196.558 468.602 196.313C469.081 195.965 469.63 195.639 470.07 195.232C471.098 194.301 472.117 193.371 473.165 192.452C473.784 191.905 474.583 190.917 474.833 190.068C474.903 189.823 474.993 189.3 474.863 189.067C474.593 188.567 474.214 188.532 473.745 188.404C473.016 188.207 472.117 187.997 471.388 188.253C470.629 188.521 469.94 188.87 469.211 189.253C468.482 189.637 467.863 190.23 467.154 190.661C466.365 191.138 465.626 191.661 464.827 192.103C464.198 192.452 463.419 193.115 462.72 193.196C462.391 193.231 462.161 193.51 461.832 193.58C461.472 193.662 461.113 193.638 460.743 193.638C460.044 193.638 459.365 193.615 458.696 193.371C458.397 193.266 458.147 193.196 457.987 193.127" stroke="#010202" stroke-width="1.5" stroke-linecap="round" stroke-linejoin="round"/>
<path d="M466.166 198.535C466.845 199.093 467.863 199.186 468.682 199.314C469.481 199.442 470.409 199.535 471.188 199.279C472.077 198.989 472.906 198.605 473.745 198.186C474.633 197.744 475.532 197.36 476.381 196.837C476.67 196.651 477 196.476 477.279 196.267C477.689 195.965 478.088 195.802 478.528 195.569C478.897 195.371 479.197 195.081 479.566 194.895C480.045 194.639 480.525 194.36 480.974 194.045C481.683 193.569 482.472 193.092 483.121 192.522C483.68 192.033 484.329 191.708 484.769 191.045C485.058 190.614 485.298 190.196 485.278 189.637C485.248 188.94 484.239 188.474 483.74 188.393C482.991 188.265 482.222 188.463 481.473 188.521C480.744 188.579 480.026 188.649 479.337 188.928C478.697 189.184 478.038 189.428 477.429 189.765C476.85 190.091 476.351 190.452 475.732 190.684C475.352 190.835 474.953 191.01 474.593 191.208C474.414 191.301 474.214 191.417 474.254 191.335" stroke="#010202" stroke-width="1.5" stroke-linecap="round" stroke-linejoin="round"/>
<path d="M474.553 197.872C475.292 198.186 476.081 198.116 476.86 198.034C477.639 197.953 478.438 197.93 479.197 197.755C480.015 197.581 480.844 197.511 481.663 197.383C482.732 197.22 483.83 197.278 484.868 196.953C486.256 196.522 487.664 196.232 488.933 195.452C489.432 195.138 489.821 194.871 490.221 194.417C490.55 194.057 490.59 193.929 490.59 193.405C490.59 192.638 489.891 191.905 489.302 191.591C488.723 191.277 488.074 190.963 487.425 190.963C486.886 190.963 486.356 190.963 485.817 190.963C485.637 190.963 485.528 191.033 485.348 191.033C485.168 191.033 484.918 191.207 484.968 190.963" stroke="#010202" stroke-width="1.5" stroke-linecap="round" stroke-linejoin="round"/>
<path d="M443.868 200.129C441.631 199.698 439.414 199.663 437.377 198.465C436.638 198.035 435.859 197.826 435.15 197.314C434.941 197.163 434.122 196.558 434.192 196.628" stroke="#010202" stroke-width="1.5" stroke-linecap="round" stroke-linejoin="round"/>
<path d="M388.977 209.375C389.985 213.865 391.393 218.296 392.821 222.646C393.69 225.31 394.539 227.985 395.727 230.497C396.496 232.125 397.195 233.754 398.044 235.347C398.653 236.487 399.641 237.51 400.49 238.453C403.736 242 409.577 237.917 412.323 235.522C413.651 234.37 415.009 232.963 416.138 231.579C417.416 230.02 418.924 228.717 420.272 227.229C421.67 225.705 423.048 224.03 424.256 222.332C425.714 220.273 427.461 218.494 429.029 216.54C431.086 213.969 432.504 210.887 434.421 208.201C435.12 207.224 435.739 206.153 436.388 205.142C436.848 204.42 437.167 203.478 437.697 202.827C438.635 201.687 439.075 200.92 439.434 200.559C439.863 200.117 440.243 199.803 440.512 199.582" stroke="#010202" stroke-width="1.5" stroke-linecap="round" stroke-linejoin="round"/>
<path d="M303.856 217.776C303.899 220.946 303.916 225.903 303.728 232.034C303.481 239.929 303.549 241.716 303.745 245.467C303.985 250.215 304.695 258.117 308.069 260.276C310.828 262.041 315.682 259.625 318.569 259.276" stroke="#010202" stroke-width="1.5" stroke-linecap="round" stroke-linejoin="round"/>
<path d="M378.069 255.276C377.569 255.276 380.622 253.937 383.567 250.575C385.789 248.044 386.934 245.194 387.549 241.895C388.159 238.661 388.015 235.606 388.065 232.339C388.103 229.456 388.198 226.644 387.973 223.759C387.677 219.963 386.804 216.332 386.509 212.558C386.345 210.454 385.559 204.164 385.724 206.268" stroke="#010202" stroke-width="1.5" stroke-linecap="round" stroke-linejoin="round"/>
<path d="M308.561 262.904C300.253 270.557 298.196 282.491 295.341 293.645C291.676 307.986 289.159 322.594 286.993 337.284C285.904 344.611 283.677 351.66 281.401 358.627C279.044 365.838 277.536 373.386 275.369 380.679C271.884 392.426 267.99 404.406 265.424 416.432C262.947 428.028 257.635 438.903 255.478 450.511C254.989 453.139 253.131 456.105 253.012 458.559C252.832 462.025 256.007 463.619 258.384 465.166C271.335 473.621 286.363 485.078 302.031 485.078C307.593 485.078 312.905 486.508 318.377 486.508C322.781 486.508 323.44 484.682 324.768 479.658C326.236 474.11 326.815 468.131 328.513 462.781C331.608 452.976 328.413 442.253 330.799 432.448C333.116 422.899 336.551 413.094 337.37 403.219C338.239 392.705 340.485 382.354 341.214 371.851C341.544 367.152 342.023 362.418 342.592 357.754C343.132 353.334 345.029 348.903 345.169 344.46C345.328 339.552 347.545 335.132 347.785 330.282C347.905 327.886 348.434 325.653 348.434 323.117C348.434 317.604 348.394 322.513 348.434 325.583C348.684 344.448 354.795 362.348 358.569 380.527C360.766 391.112 363.003 401.731 365.1 412.338C367.436 424.12 368.745 435.995 370.981 447.766C372.639 456.489 373.647 465.014 375.884 473.61C376.553 476.168 377.352 478.518 377.881 481.135C378.471 484.054 378.68 484.357 381.436 484.357C384.861 484.357 387.218 482.786 390.553 482.205C395.506 481.333 400.798 479.658 405.292 477.192C408.737 475.308 412.322 472.423 416.076 471.458C419.961 470.458 424.494 469.55 427.879 467.073C432.343 463.816 436.347 460.257 440.91 457.478C445.594 454.628 444.136 450.778 443.057 445.812C441.46 438.449 439.073 430.82 437.176 423.434C434.789 414.164 433.022 402.312 428.678 393.891C425.992 388.692 425.123 382.865 422.797 377.562C420.33 371.956 416.995 366.884 415.247 360.918C413.869 356.196 412.342 350.892 410.384 346.426C407.928 340.843 406.44 335.155 404.323 329.468C401.298 321.361 399.29 311.952 398.072 303.31C397.553 299.576 396.205 295.541 395.206 291.923C394.078 287.852 394.158 283.328 392.56 279.42C390.214 273.698 387.458 268.673 384.722 263.253C383.114 260.078 379.209 257.973 377.861 255.007" stroke="#010202" stroke-width="1.5" stroke-linecap="round" stroke-linejoin="round"/>
<path d="M299.934 566.017C301.282 563.388 303.489 560.701 305.616 558.794C307.473 557.131 308.951 555.339 311.248 554.397C312.865 553.734 314.333 551.734 315.152 550.117C315.921 548.594 316.949 547.175 317.339 545.442C317.748 543.639 318.288 543.65 319.636 544.465C321.054 545.325 321.263 547.965 321.303 549.547C321.343 551.176 321.473 552.804 320.884 554.235C320.434 555.339 319.156 556.572 318.178 557.142C316.959 557.84 316.031 558.98 314.743 559.608C313.105 560.399 311.278 560.701 309.75 561.771C308.322 562.76 306.774 563.69 305.216 564.412C303.409 565.237 302.361 567.529 300.843 568.75" stroke="#010202" stroke-width="1.5" stroke-linecap="round" stroke-linejoin="round"/>
<path d="M280.492 554.072C281.96 552.525 283.887 551.536 285.355 550.012C286.863 548.442 288.67 547.116 290.288 545.674C293.364 542.952 295.94 539.452 297.118 535.253C297.667 533.31 297.538 531.356 297.538 529.356C297.538 528.018 296.689 526.89 296.928 525.448C297.168 524.017 300.144 523.471 301.202 523.285C303.139 522.947 305.087 522.598 307.024 523.064C307.962 523.296 309.63 524.122 309.63 525.332C309.63 527.414 309.93 529.333 309.301 531.403C308.751 533.206 308.232 534.811 307.453 536.532C306.934 537.672 305.875 541.243 305.875 539.963" stroke="#010202" stroke-width="1.5" stroke-linecap="round" stroke-linejoin="round"/>
<path d="M309.42 530.589C310.898 530.299 312.875 530.159 314.173 529.217C314.862 528.717 315.851 527.437 316.72 527.391C318.927 527.251 317.349 531.741 317.349 532.974C317.349 534.125 316.77 535.172 316.939 536.416C317.069 537.335 317.309 538.522 317.658 539.371C318.308 540.929 318.597 542.348 318.597 544.07" stroke="#010202" stroke-width="1.5" stroke-linecap="round" stroke-linejoin="round"/>
<path d="M296.499 526.925C294.731 528.448 295.251 530.984 295.251 533.217C295.251 534.95 294.642 537.695 293.793 539.207C293.004 540.614 292.125 542.057 291.396 543.487C291.177 543.918 290.018 546.29 289.829 545.883" stroke="#010202" stroke-width="1.5" stroke-linecap="round" stroke-linejoin="round"/>
<path d="M287.532 566.226C289.289 558.619 297.088 555.176 302.42 550.931C304.907 548.954 308.182 547.07 310.129 544.418C311.507 542.545 312.586 540.556 313.784 538.579" stroke="#010202" stroke-width="1.5" stroke-linecap="round" stroke-linejoin="round"/>
<path d="M297.617 524.111C297.068 519.528 297.617 514.818 297.617 510.224C297.617 505.99 297.298 501.896 296.978 497.697C296.758 494.755 295.95 491.765 295.88 488.846C295.86 487.974 295.56 487.148 295.56 486.276C295.56 485.682 295.241 485.043 295.4 484.496" stroke="#010202" stroke-width="1.5" stroke-linecap="round" stroke-linejoin="round"/>
<path d="M314.403 528.624C314.014 526.239 313.924 523.669 313.924 521.25C313.924 518.9 313.854 516.493 314.114 514.166C314.633 509.584 315.282 505.106 316.21 500.593C316.58 498.79 317.069 497.022 317.329 495.185C317.449 494.312 317.728 493.463 317.728 492.579C317.728 492.103 317.788 491.44 317.968 491.009C318.487 489.765 318.367 488.288 318.367 486.938" stroke="#010202" stroke-width="1.5" stroke-linecap="round" stroke-linejoin="round"/>
<path d="M268.809 569.064C269.278 570.122 269.378 571.89 270.786 571.925C271.036 571.937 271.285 572.018 271.365 571.727C271.455 571.413 271.645 571.088 271.665 570.762C271.735 569.738 274.481 571.088 275.01 571.181C275.459 571.262 275.919 571.192 276.358 571.308C276.677 571.39 277.047 571.448 277.376 571.448C278.115 571.448 278.435 571.797 278.744 572.495C279.074 573.239 279.004 574.077 279.044 574.879C279.074 575.589 280.132 575.542 280.562 575.542C282.409 575.542 284.097 575.019 285.904 574.681C286.893 574.495 287.662 573.763 288.52 573.297C289.449 572.786 290.358 572.239 291.286 571.727C292.744 570.925 294.212 570.169 295.67 569.389C296.419 568.994 297.038 568.459 297.617 567.819C297.827 567.598 298.027 567.377 298.226 567.145C298.386 566.97 298.576 566.551 298.576 566.959" stroke="#010202" stroke-width="1.5" stroke-linecap="round" stroke-linejoin="round"/>
<path d="M268.639 569.344C268.779 570.274 268.519 571.379 268.749 572.275C268.909 572.903 269.118 573.484 269.338 574.089C269.947 575.717 271.285 576.729 272.374 577.916C273.662 579.323 275.739 579.753 277.446 580.091C279.124 580.416 280.931 579.916 282.549 579.497C283.498 579.253 284.446 578.986 285.385 578.73C286.483 578.439 287.422 577.962 288.441 577.439C289.479 576.904 290.498 576.311 291.526 575.764C292.015 575.508 292.405 575.078 292.864 574.775C293.393 574.438 294.002 574.182 294.502 573.798C295.321 573.159 296 572.379 296.888 571.821C297.597 571.367 298.226 570.844 298.865 570.297C299.465 569.786 301.372 568.401 300.693 568.774" stroke="#010202" stroke-width="1.5" stroke-linecap="round" stroke-linejoin="round"/>
<path d="M268.639 569.158C268.779 568.355 268.939 567.576 269.118 566.773C269.328 565.843 269.967 564.959 270.357 564.11C270.876 562.97 271.405 561.912 272.084 560.865C272.743 559.841 273.702 559.132 274.62 558.411C275.879 557.434 277.396 556.852 278.555 555.724C279.064 555.224 279.773 554.537 280.382 554.2" stroke="#010202" stroke-width="1.5" stroke-linecap="round" stroke-linejoin="round"/>
<path d="M271.415 565.342C271.845 566.924 272.853 567.494 274.211 567.994C275.38 568.424 276.418 568.808 277.666 568.889C278.974 568.982 280.272 569.017 281.581 568.773C282.639 568.564 283.598 568.11 284.636 567.831" stroke="white" stroke-width="1.5" stroke-linecap="round" stroke-linejoin="round"/>
<path d="M287.662 566.389C288.96 563.679 291.157 562.504 293.453 561.004C294.622 560.236 295.73 559.422 296.988 558.817C297.987 558.341 299.005 557.852 299.964 557.294C302.201 555.991 304.377 554.537 306.484 553.002C308.232 551.723 310.119 550.513 311.158 548.443C312.606 545.535 313.644 541.999 313.644 538.661" stroke="#010202" stroke-width="1.5" stroke-linecap="round" stroke-linejoin="round"/>
<path d="M314.143 525.994C316.091 525.529 318.547 524.308 320.365 525.82C321.083 526.413 321.463 527.425 321.772 528.321C322.102 529.251 322.342 530.251 322.362 531.252C322.372 531.763 322.541 532.252 322.551 532.752C322.561 533.02 322.142 533.124 321.952 533.217C321.633 533.38 321.253 533.555 320.924 533.671C320.744 533.729 320.674 533.787 320.594 533.589C319.895 531.973 319.775 530.135 318.777 528.693C318.547 528.367 318.337 528.1 318.008 527.914C317.788 527.797 317.499 527.704 317.439 527.448" stroke="#010202" stroke-width="1.5" stroke-linecap="round" stroke-linejoin="round"/>
<path d="M425.103 554.072C423.635 552.525 421.708 551.536 420.24 550.012C418.732 548.442 416.925 547.116 415.307 545.674C412.232 542.952 409.656 539.452 408.477 535.253C407.938 533.31 408.058 531.356 408.058 529.356C408.058 528.018 408.907 526.89 408.677 525.448C408.437 524.017 405.462 523.471 404.403 523.285C402.466 522.947 400.519 522.598 398.582 523.064C397.643 523.296 395.975 524.122 395.975 525.332C395.975 527.414 395.676 529.333 396.295 531.403C396.844 533.206 397.363 534.811 398.152 536.532C398.671 537.672 399.73 541.243 399.73 539.963" stroke="#010202" stroke-width="1.5" stroke-linecap="round" stroke-linejoin="round"/>
<path d="M396.185 530.589C394.707 530.298 392.73 530.158 391.442 529.216C390.753 528.716 391.891 526.634 391.013 526.576C388.806 526.436 388.267 531.74 388.267 532.973C388.267 534.124 388.846 535.171 388.676 536.416C388.546 537.335 388.306 538.521 387.957 539.37C387.308 540.928 387.018 542.347 387.018 544.069" stroke="#010202" stroke-width="1.5" stroke-linecap="round" stroke-linejoin="round"/>
<path d="M409.106 526.925C410.874 528.448 410.355 530.984 410.355 533.217C410.355 534.95 410.964 537.695 411.813 539.207C412.601 540.614 413.48 542.057 414.209 543.487C414.429 543.918 415.587 546.29 415.767 545.883" stroke="#010202" stroke-width="1.5" stroke-linecap="round" stroke-linejoin="round"/>
<path d="M418.064 566.226C416.306 558.619 408.507 555.176 403.175 550.931C400.689 548.954 397.413 547.07 395.466 544.418C394.088 542.545 393.01 540.556 391.812 538.579" stroke="#010202" stroke-width="1.5" stroke-linecap="round" stroke-linejoin="round"/>
<path d="M407.988 524.111C408.537 519.528 407.988 514.818 407.988 510.224C407.988 505.99 408.308 501.896 408.627 497.697C408.847 494.755 409.646 491.765 409.726 488.846C409.745 487.974 410.045 487.16 410.045 486.276C410.045 485.682 410.205 474.959 410.045 474.412" stroke="#010202" stroke-width="1.5" stroke-linecap="round" stroke-linejoin="round"/>
<path d="M391.192 528.623C391.582 526.239 391.672 523.668 391.672 521.249C391.672 518.9 391.741 516.492 391.482 514.166C390.973 509.583 390.314 505.105 389.385 500.593C389.015 498.79 388.516 497.022 388.266 495.184C388.147 494.312 387.867 493.463 387.867 492.579C387.867 492.102 387.807 491.439 387.627 491.009C387.448 490.567 386.429 484.856 386.429 483.519" stroke="#010202" stroke-width="1.5" stroke-linecap="round" stroke-linejoin="round"/>
<path d="M436.797 569.064C436.327 570.122 436.227 571.89 434.819 571.925C434.57 571.937 434.32 572.018 434.24 571.727C434.15 571.413 433.961 571.088 433.931 570.762C433.861 569.738 431.115 571.088 430.585 571.181C430.136 571.262 429.677 571.192 429.237 571.308C428.918 571.39 428.548 571.448 428.219 571.448C427.48 571.448 427.16 571.797 426.851 572.495C426.521 573.239 426.591 574.077 426.551 574.879C426.521 575.589 425.463 575.542 425.033 575.542C423.186 575.542 421.499 575.019 419.691 574.681C418.703 574.495 417.934 573.763 417.075 573.297C416.146 572.786 415.238 572.239 414.299 571.727C412.841 570.925 411.383 570.169 409.915 569.389C409.166 568.994 408.547 568.459 407.968 567.819C407.758 567.598 407.559 567.377 407.359 567.145C407.199 566.97 407.01 566.551 407.01 566.959" stroke="#010202" stroke-width="1.5" stroke-linecap="round" stroke-linejoin="round"/>
<path d="M436.966 569.344C436.826 570.274 437.086 571.379 436.856 572.275C436.697 572.903 436.487 573.484 436.267 574.089C435.658 575.717 434.32 576.729 433.232 577.916C431.943 579.323 429.866 579.753 428.159 580.091C426.481 580.416 424.674 579.916 423.056 579.497C422.108 579.253 421.159 578.986 420.22 578.73C419.122 578.439 418.183 577.962 417.155 577.439C416.116 576.904 415.098 576.311 414.069 575.764C413.58 575.508 413.19 575.078 412.731 574.775C412.202 574.438 411.593 574.182 411.094 573.798C410.275 573.159 409.596 572.379 408.707 571.821C407.998 571.367 407.369 570.844 406.73 570.297C406.131 569.786 404.223 568.401 404.902 568.774" stroke="#010202" stroke-width="1.5" stroke-linecap="round" stroke-linejoin="round"/>
<path d="M436.966 569.158C436.826 568.355 436.667 567.576 436.487 566.773C436.277 565.843 435.638 564.959 435.249 564.11C434.729 562.97 434.2 561.912 433.521 560.865C432.862 559.841 431.904 559.132 430.985 558.411C429.727 557.434 428.209 556.852 427.061 555.724C426.551 555.224 425.842 554.537 425.233 554.2" stroke="#010202" stroke-width="1.5" stroke-linecap="round" stroke-linejoin="round"/>
<path d="M434.19 565.342C433.761 566.924 432.752 567.493 431.394 567.994C430.226 568.424 429.187 568.808 427.939 568.889C426.631 568.982 425.333 569.017 424.025 568.761C422.966 568.552 422.008 568.098 420.969 567.819" stroke="#010202" stroke-width="1.5" stroke-linecap="round" stroke-linejoin="round"/>
<path d="M417.934 566.389C416.636 563.679 414.439 562.504 412.142 561.004C410.974 560.236 409.855 559.422 408.607 558.817C407.609 558.341 406.59 557.852 405.631 557.294C403.395 555.991 401.218 554.537 399.111 553.002C397.363 551.723 395.476 550.513 394.438 548.443C392.99 545.535 391.951 541.999 391.951 538.661" stroke="#010202" stroke-width="1.5" stroke-linecap="round" stroke-linejoin="round"/>
<path d="M390.174 526.611C389.804 526.076 389.804 525.518 389.714 524.878C389.575 523.924 389.035 523.157 388.556 522.366C388.366 522.04 388.167 521.691 388.027 521.342C387.907 521.04 387.817 520.714 387.598 520.482C387.488 520.365 387.358 520.365 387.208 520.377C387.018 520.377 387.058 520.796 387.078 520.924C387.158 521.401 387.498 521.773 387.717 522.18C387.967 522.657 388.197 523.157 388.396 523.657C388.626 524.262 388.996 524.75 389.245 525.343C389.355 525.611 389.415 525.878 389.515 526.158C389.555 526.262 389.665 526.658 389.605 526.728" stroke="#010202" stroke-width="1.5" stroke-linecap="round" stroke-linejoin="round"/>
<path d="M387.058 520.319C387.468 519.889 387.997 519.749 388.516 519.563C388.866 519.435 389.195 519.249 389.545 519.133C389.714 519.074 389.864 519.086 390.014 518.97C390.144 518.865 390.364 518.702 390.543 518.795C390.643 518.842 390.713 519.098 390.753 519.191C390.833 519.4 390.943 519.551 391.043 519.749C391.142 519.935 391.252 520.168 391.312 520.377C391.392 520.703 391.592 521.017 391.702 521.342" stroke="#010202" stroke-width="1.5" stroke-linecap="round" stroke-linejoin="round"/>
<path d="M404.883 565.54C404.004 564.807 403.145 564.028 402.256 563.307C400.848 562.167 399.6 560.806 398.232 559.62C397.363 558.864 396.734 557.852 395.995 556.968C395.326 556.166 394.717 555.328 394.188 554.409C393.01 552.351 391.921 550.234 390.643 548.245C390.214 547.57 389.605 547.035 389.075 546.454C388.666 546.012 388.267 545.57 387.857 545.128C387.637 544.884 387.378 544.558 387.218 544.267C387.108 544.058 386.829 544.081 386.719 543.918C386.609 543.767 386.01 544.279 385.94 544.36C385.63 544.698 385.411 545.198 385.211 545.616C384.921 546.245 384.921 546.908 384.861 547.594C384.812 548.187 384.871 548.873 384.941 549.466C384.991 549.873 384.951 550.28 384.981 550.676C385.091 551.874 385.351 553.118 385.75 554.247C385.97 554.851 386.269 555.421 386.639 555.945C387.218 556.771 387.977 557.654 388.776 558.213C389.135 558.457 389.495 558.69 389.844 558.957C390.184 559.225 390.473 559.562 390.863 559.76C391.552 560.109 392.211 560.551 392.82 561.051C393.329 561.469 394.018 561.69 394.597 561.981C395.286 562.318 395.915 562.819 396.604 563.167C397.663 563.714 398.592 564.621 399.58 565.296C400.439 565.878 401.318 566.529 402.236 567.017C402.486 567.145 404.783 568.704 404.813 568.622" stroke="#010202" stroke-width="1.5" stroke-linecap="round" stroke-linejoin="round"/>
<path d="M382.317 190.067C382.386 193.161 383.065 196.22 383.635 199.244C383.884 200.558 384.374 201.698 384.763 202.954C385.202 204.362 385.792 205.478 386.55 206.7C386.87 207.211 387.11 207.828 387.439 208.305C387.629 208.584 387.729 209.282 388.168 209.305C388.348 209.317 388.627 208.898 388.917 208.886C389.067 208.875 389.436 208.816 389.556 208.944C389.826 209.247 391.004 208.246 391.373 208.095C392.951 207.479 392.741 207.409 393.46 206.781C393.95 206.351 394.699 205.571 395.328 204.199" stroke="#010202" stroke-width="1.5" stroke-linecap="round" stroke-linejoin="round"/>
<path d="M308.783 208.678C309.292 205.398 309.711 202.571 310.041 200.315C310.45 197.512 310.67 195.849 310.78 193.581C310.92 190.65 310.76 189.021 310.53 187.695C310.28 186.253 309.921 185.102 309.641 184.346" stroke="#010202" stroke-width="1.5" stroke-linecap="round" stroke-linejoin="round"/>
<path d="M310.32 198.302C311.579 194.313 312.747 189.393 313.266 183.682C313.446 181.717 313.536 179.832 313.556 178.076" stroke="#010202" stroke-width="1.5" stroke-linecap="round" stroke-linejoin="round"/>
<path d="M342.103 267.475C342.103 266.183 341.843 264.52 342.503 263.38C342.982 262.543 343.98 261.601 344.949 261.996C347.555 263.066 348.574 267.73 346.856 270.103C346.387 270.754 345.408 271.127 344.689 271.231C344.21 271.301 342.862 271.045 342.692 270.522C342.343 269.405 342.103 268.545 342.103 267.347C342.103 266.451 342.353 265.823 342.652 264.997C342.982 264.078 343.221 263.95 343.98 263.578C345.588 262.787 346.327 265.486 346.327 266.788C346.327 268.684 345.818 269.359 344.14 269.359C342.762 269.359 342.263 267.73 342.263 266.451" stroke="#010202" stroke-width="1.5" stroke-linecap="round" stroke-linejoin="round"/>
<path d="M345.388 271.592C347.156 272.429 348.045 273.29 348.664 275.372C349.403 277.884 349.562 280.571 349.732 283.188C349.912 285.874 350.082 288.584 350.471 291.248C351.07 295.423 352.768 299.82 354.715 303.449C355.983 305.821 357.751 307.764 359.408 309.811C360.956 311.73 362.194 313.556 364.191 314.963C365.14 315.626 366.108 316.243 367.027 316.952C367.437 317.266 367.946 317.313 368.315 317.685C368.914 318.278 369.843 316.778 370.262 316.196C370.832 315.405 371.561 314.824 371.161 313.742C370.462 311.846 368.864 310.323 367.566 308.915C366.218 307.438 364.88 305.635 363.362 304.391C362.074 303.332 361.006 301.483 360.157 300.006C359.079 298.145 358.509 296.028 357.731 294.004C356.792 291.562 356.113 289.003 355.644 286.398C355.274 284.386 355.394 282.292 354.865 280.315C353.976 276.988 353.177 273.243 351.11 270.475C350.461 269.603 349.862 268.777 349.073 268.068C348.574 267.626 347.985 266.8 347.286 266.8" stroke="#010202" stroke-width="1.5" stroke-linecap="round" stroke-linejoin="round"/>
<path d="M341.484 268.684C339.227 268.068 337.31 267.405 334.973 267.614C332.377 267.858 329.681 267.637 327.115 267.218C323.11 266.556 319.106 266.439 315.092 266.102C313.015 265.927 310.968 264.95 309.161 263.845C308.761 263.601 308.142 263.089 308.062 262.589C308.002 262.252 307.982 261.101 307.753 260.973" stroke="#010202" stroke-width="1.5" stroke-linecap="round" stroke-linejoin="round"/>
<path d="M346.477 263.369C348.124 263.136 349.782 262.764 351.45 262.939C352.718 263.078 353.996 263.02 355.274 263.02C357.361 263.02 359.498 263.567 361.525 262.764C362.853 262.241 364.521 261.892 365.929 261.81C367.357 261.729 368.775 260.833 370.093 260.275C371.63 259.624 373.508 258.903 374.826 257.786C375.255 257.425 375.695 257.088 376.074 256.763C376.434 256.46 377.202 256.262 377.402 255.832" stroke="#010202" stroke-width="1.5" stroke-linecap="round" stroke-linejoin="round"/>
<path d="M349.133 267.998C352.498 267.998 355.873 268.278 359.228 267.998C361.605 267.801 363.982 267.824 366.368 267.824C368.235 267.824 369.534 266.928 371.231 266.196C372.369 265.707 373.528 265.195 374.506 264.393C375.974 263.207 377.322 262.125 378.521 260.659C379.13 259.927 379.959 258.589 379.419 257.705" stroke="#010202" stroke-width="1.5" stroke-linecap="round" stroke-linejoin="round"/>
<path d="M342.103 263.543C340.875 263.764 315.569 259.776 318.569 259.276" stroke="#010202" stroke-width="1.5" stroke-linecap="round" stroke-linejoin="round"/>
<path d="M372.599 270.371C375.265 274.756 378.74 278.175 382.894 280.816C383.314 281.083 386.779 282.898 386.599 283.095" stroke="#010202" stroke-width="1.5" stroke-linecap="round" stroke-linejoin="round"/>
<path d="M384.761 279.861C385.311 280.466 385.87 281.071 386.419 281.676" stroke="#010202" stroke-width="1.5" stroke-linecap="round" stroke-linejoin="round"/>
<path d="M317.139 270.161C316.6 271.499 315.961 272.871 315.112 274.011C313.335 276.395 310.529 277.651 307.982 278.733C306.664 279.303 305.316 279.757 303.998 280.338C303.559 280.536 303.219 280.664 302.76 280.664" stroke="#010202" stroke-width="1.5" stroke-linecap="round" stroke-linejoin="round"/>
<path d="M304.238 278.652C305.586 277.965 306.934 277.303 308.292 276.628" stroke="#010202" stroke-width="1.5" stroke-linecap="round" stroke-linejoin="round"/>
<path d="M333.657 98.7652C332.369 97.8696 331.62 97.2415 330.881 95.7412C330.391 94.7409 329.962 93.7523 329.533 92.7171C328.704 90.7166 327.975 88.3672 327.935 86.1108C327.905 84.5057 327.755 82.8541 328.344 81.4351C328.494 81.063 328.794 80.2721 329.113 80.0743C329.343 79.9231 330.202 79.8301 330.122 79.8301" stroke="#010202" stroke-width="1.5" stroke-linecap="round" stroke-linejoin="round"/>
<path d="M350.932 63.5C349.753 69.3038 347.597 72.1767 345.789 73.7468C342.744 76.387 340.497 75.5729 337.941 78.9807C336.323 81.1324 335.304 83.6912 335.304 86.599C335.304 87.6806 335.344 88.6693 335.464 89.7277C335.504 90.1231 335.784 91.2048 335.544 90.9257C334.995 90.2627 334.476 89.0996 334.036 88.3087C333.617 87.5527 333.088 86.9014 332.828 86.0291C332.628 85.3894 332.209 85.6569 331.989 86.1919C331.739 86.7967 331.57 86.378 331.28 85.8313C330.661 84.6566 330.651 83.0399 330.611 82.5398C330.551 81.9117 330.451 81.0045 330.272 79.9112" stroke="#010202" stroke-width="1.5" stroke-linecap="round" stroke-linejoin="round"/>
<path d="M350.592 54.7655C347.517 54.149 344.142 51.8694 340.956 52.4393C339.019 52.7882 336.992 53.2534 335.085 53.7536C334.046 54.0327 332.918 54.1955 331.939 54.6957C329.513 55.9402 326.707 57.2661 324.8 59.5225C322.583 62.1511 321.694 65.3031 320.675 68.6993C319.907 71.2581 319.517 74.1542 319.078 76.806C318.579 79.8184 318.359 82.8657 317.889 85.8897C317.62 87.6576 317.72 89.4953 317.38 91.2516C317.171 92.2984 316.981 93.287 316.831 94.3338C316.591 96.0552 316.412 98.6488 315.343 99.9864C314.654 100.847 314.255 101.498 315.553 101.033C316.192 100.812 316.921 100.859 317.55 100.545C318.099 100.266 318.039 101.231 318.059 101.754C318.129 103.639 320.036 102.65 320.945 103.162C322.093 103.813 322.473 105.872 323.651 106.628C325.119 107.57 326.877 107.779 328.474 108.082C329.203 108.221 330.451 107.93 331.11 108.279C331.979 108.744 333.068 107.884 333.826 107.43" stroke="#010202" stroke-width="1.5" stroke-linecap="round" stroke-linejoin="round"/>
<path d="M350.592 54.7186C354.836 53.9743 359.709 52.2296 363.783 54.9164C366.899 56.9867 368.896 61.011 370.603 64.5816C372.561 68.6641 373.449 74.0492 373.489 78.7132C373.519 81.5511 373.639 84.2379 373.819 87.0525C373.919 88.6692 374.628 89.9603 375.357 91.2746C375.526 91.5886 375.826 92.8098 375.516 93.0308C375.376 93.1239 374.897 93.0774 374.857 93.2518C374.717 93.8217 374.997 94.5428 375.017 95.1128C375.037 95.8571 374.018 96.1712 373.499 96.1712C372.7 96.1712 372.411 97.974 371.921 98.5555C371.302 99.2883 370.254 98.4276 369.834 98.9393C368.966 99.9745 368.766 101.242 367.518 101.835C367.098 102.033 366.2 102.894 365.011 102.743C364.642 102.696 364.342 102.568 364.143 102.475" stroke="#010202" stroke-width="1.5" stroke-linecap="round" stroke-linejoin="round"/>
<path d="M350.932 63.5C351.261 64.2327 351.701 64.8841 352.02 65.6285C352.519 66.7799 352.779 68.1058 353.089 69.3387C353.698 71.7463 354.397 74.2353 354.636 76.7476C354.786 78.3527 354.706 79.8879 355.076 81.4697C355.156 81.807 355.196 81.7721 355.305 81.4581C355.605 80.6323 355.915 79.8182 356.114 78.9575C356.574 76.9686 357.103 74.5028 356.853 72.4442C356.743 71.537 356.414 70.8158 356.084 70.0249C356.014 69.8505 356.114 70.4669 356.154 70.56C356.474 71.2345 356.833 71.8859 357.133 72.5837C357.852 74.2702 358.361 75.9916 358.86 77.7827C359.669 80.6905 360.478 84.11 360.218 87.227C360.089 88.7856 359.689 90.3209 359.689 91.891C359.689 93.5077 359.919 95.0779 360.468 96.555C361.087 98.2415 362.086 99.9861 363.154 101.312C363.284 101.475 364.133 102.557 364.133 102.475" stroke="#010202" stroke-width="1.5" stroke-linecap="round" stroke-linejoin="round"/>
<path d="M332.648 96.1602C332.009 97.0906 331.5 98.1258 330.951 99.126" stroke="#010202" stroke-width="1.5" stroke-linecap="round" stroke-linejoin="round"/>
<path d="M331.63 94.6709C330.781 95.1361 329.473 95.613 328.924 96.5318" stroke="#010202" stroke-width="1.5" stroke-linecap="round" stroke-linejoin="round"/>
<path d="M356.064 117.049C356.064 119.224 356.524 121.48 357.103 123.551C357.333 124.353 357.962 126.749 357.962 125.9" stroke="#010202" stroke-width="1.5" stroke-linecap="round" stroke-linejoin="round"/>
<path d="M356.544 120.05C360.158 122.446 361.596 123.155 362.216 123.318C362.305 123.341 362.855 123.481 363.584 123.714C364.063 123.865 364.442 124.016 364.652 124.097" stroke="#010202" stroke-width="1.5" stroke-linecap="round" stroke-linejoin="round"/>
<path d="M366.05 125.202C366.04 124.342 365.9 121.097 364.412 121.736C363.564 122.108 362.845 122.678 362.056 123.109" stroke="#010202" stroke-width="1.5" stroke-linecap="round" stroke-linejoin="round"/>
<path d="M326.527 131.076C327.436 132.1 328.414 133.309 329.093 134.542C329.623 135.496 330.481 136.17 331.2 136.938C331.999 137.787 332.908 138.485 333.727 139.311C334.625 140.218 335.424 141.323 336.473 142.032C337.541 142.765 338.979 142.916 340.177 143.254C341.356 143.579 342.394 144.114 343.612 144.347C345.919 144.789 348.076 143.614 350.173 142.823C351.062 142.486 351.771 142.207 352.619 141.718C353.468 141.242 354.317 140.613 355.206 140.23C355.715 140.009 356.214 140.032 356.713 139.753C357.303 139.427 357.822 138.962 358.451 138.718C359.41 138.345 360.488 138.299 361.387 137.752C362.455 137.101 363.384 136.531 364.372 135.705C365.171 135.042 366.01 133.868 366.589 132.949C367.248 131.914 367.708 131.088 368.097 129.925C368.317 129.273 368.666 128.785 369.006 128.227" stroke="#010202" stroke-width="1.5" stroke-linecap="round" stroke-linejoin="round"/>
<path d="M401.647 529.321C400.758 529.321 399.89 530.705 397.423 530.775C396.974 530.786 395.416 530.81 393.898 529.763C391.951 528.414 391.961 526.576 391.003 526.576C389.704 526.576 388.386 529.984 388.257 532.973C388.197 534.415 388.436 535.613 388.666 536.416C388.187 539.033 387.707 541.65 387.228 544.255C388.526 545.162 390.274 546.674 391.582 549.14C392.131 550.175 392.381 550.954 392.59 551.547C393.11 552.966 394.128 555.118 398.232 559.619C403.205 565.086 407.908 568.715 408.198 568.936C408.198 568.936 416.586 575.356 423.586 576.03C425.633 576.228 426.202 575.519 426.382 575.216C426.821 574.484 426.611 573.46 426.471 572.937C426.641 572.576 426.811 572.227 426.971 571.867C429.158 571.366 431.344 570.878 433.531 570.378C433.661 570.727 434.12 571.843 434.809 571.902C435.688 571.983 436.537 570.32 436.786 569.04C437.535 565.237 433.621 561.178 432.253 559.747C430.715 558.154 429.777 557.63 427.051 555.7C419.651 550.443 419.072 549.768 418.283 548.919C415.737 546.186 414.209 543.452 413.131 541.498C411.653 538.847 410.924 537.521 410.684 535.939C410.335 533.613 410.854 531.926 410.035 529.344C409.825 528.681 409.506 527.902 409.106 526.913C408.667 525.832 408.407 525.296 407.988 524.727C407.698 524.331 407.419 524.052 407.219 523.854C406.181 523.436 399.291 520.772 396.924 524.18C396.145 525.296 396.135 526.669 396.145 527.762C396.245 538.102 396.295 543.266 398.841 547.023C400.569 549.57 404.004 551.734 410.864 556.095C412.082 556.874 414.678 558.503 416.216 561.911C416.785 563.167 417.055 564.318 417.195 565.121C416.456 564.388 415.218 563.202 413.59 561.922C408.747 558.107 405.661 557.514 399.101 552.99C397.343 551.78 395.786 550.594 394.428 548.43C393.199 546.465 392.64 544.487 392.361 543.173C391.502 539.556 391.562 538.684 391.791 538.567C392.181 538.37 393.139 540.3 395.826 543.929C397.803 546.604 398.831 547.116 399.97 547.57C400.739 547.884 401.487 547.43 401.937 546.732C411.273 546.372 411.193 529.321 401.647 529.321Z" fill="black"/>
<path d="M422.357 566.75C423.186 566.959 424.524 567.203 426.172 567.122C428.239 567.017 430.326 566.901 431.304 565.214C431.494 564.889 432.123 563.667 431.624 561.388" stroke="white" stroke-width="1.5" stroke-miterlimit="10" stroke-linecap="round" stroke-linejoin="round"/>
<path d="M273.678 473.216C276.137 463.379 277.949 453.396 280.465 443.573C282.582 435.307 284.905 427.064 287.193 418.844C291.024 405.083 294.307 391.149 297.822 377.304C300.701 365.963 304.129 354.81 306.715 343.389C309.545 330.889 314.361 319.047 317.753 306.705C319.731 299.511 321.331 292.377 322.551 285.057C322.764 283.777 323.348 282.617 323.546 281.332C323.762 279.927 324.93 278.984 324.93 277.686" stroke="black" stroke-linecap="round" stroke-linejoin="round"/>
<path d="M365.198 277.326C371.513 297.705 379.337 317.53 384.858 338.183C387.224 347.035 390.321 355.599 392.975 364.365C394.651 369.901 396.872 375.24 398.653 380.74C400.931 387.778 402.82 394.931 405.01 401.995C409.489 416.441 414.348 430.782 419.227 445.116C420.186 447.93 421.032 450.788 421.972 453.608C422.282 454.539 427.164 466.824 428.069 467.276" stroke="black" stroke-linecap="round" stroke-linejoin="round"/>
</svg>
